<svg id="Livello_1" data-name="Livello 1" xmlns="http://www.w3.org/2000/svg" viewBox="0 0 132.71 199.37"><defs><style>.cls-1{fill:#fff;}</style></defs><title>Tavola disegno 2</title><path class="cls-1" d="M102.11,136.43c-7.91,4.08-15.93,12.49-32.81,13-.15-20.86.12-45.47.12-45.47,0-1,.17-2.24,1-2.41,2.92-.34,13-.34,17.68-.34H91c2.61,7.1,4.78,13.35,6.09,17.76.93,3.13-.17,6.71-7.91,7.74-1.55.17-3.27.86-3.27,1.55s.79.82,2.51.82c3.61,0,9.84-.69,14.48-.69,9.29,0,11.18.52,13.93.52,1.55,0,3.34,0,3.34-.82,0-.52-1-1.2-2.92-1.55-4.47-1-7-2.58-11.49-13.24-1.78-4.14-3.45-8-5.06-11.83,3.3.25,4.58.69,5.44,1.46,1.38,1.38,2.58,4.64,2.92,7.74.17,1,.52,2.58,1.2,2.58s1.38-1.38,1.38-4c0-6.19,0-10.32.52-12.38a3.92,3.92,0,0,0,0-2.06c-.17-.34-.69-.34-1.37.17-2.92,1.55-6.19,1.89-10.84,1.89H98.78c-7.94-18.76-14.62-35.33-25-63.07A54.46,54.46,0,0,1,70,20.08c-.34-1-.69-1.38-1.2-1.38-.69,0-.86,1-1,1.72A13.81,13.81,0,0,1,63.92,28a4.18,4.18,0,0,0-.52,1.89,12.25,12.25,0,0,1-1,5C54.49,54.49,44,80.57,37.14,96.79c-3.26-.07-5.56-.15-6.49-.2-2.24-.17-5-.86-5.68-1.72-.34-.52-1-.86-1.38-.69-.69.34-.69,1-.69,2.58,0,4.3-1.55,9.46-2.41,14.45-.17,1-.17,2.58.52,2.58.52,0,1.55-1,2.24-2.75,2.41-6.71,4.47-8.77,7.57-9.29,1.31-.17,2.77-.32,4.41-.45-1.53,3.57-2.78,6.41-3.65,8.24-6.71,14.62-7.74,15.82-15.65,17.37-1.72.34-3.83.78-3.44,1.55a1.82,1.82,0,0,0,.84.61c2.65.83,3.89-.09,10.2,4.36,9.54,6.74,24.6,18.67,40.06,20.15-.07,6.46-.24,8.19-.53,12.12-.52,7.91-.55,10.84-8.63,11.87-1.89.34-3.61.86-3.61,1.55,0,.86.86,1.55,3.1,1.55,2.75,0,3.91-1,11.48-1,6.19,0,7.32,1,11.45,1,2.24,0,3.44-.17,3.44-1.2,0-.86-.86-1.2-2.92-1.72-5.68-1.72-7.17-2.73-7.54-9.12-.25-4.48-.4-7.32-.49-15,17.41-.94,27.32-11.15,37-16.93,6.64-4,11.5.88,13.74-1.42C121.26,134.13,116,129.24,102.11,136.43ZM64.61,38c.52-1.2.86-1.72,1.38-.52,0,0,13.86,33.75,23.47,59.51l-21.83.12c-9.79,0-19.15-.1-26.06-.23C49.27,75.52,58.64,52.49,64.61,38ZM37.3,136.31c-3.63-3.43-5.92-8-4.56-12.8l.5-1.78c1.9-6.34,4.25-13.38,6.84-20.69,2.27-.09,4.83-.14,7.73-.14a130.45,130.45,0,0,1,13.9.52c.52.17,1,.69,1.2,2.24.24,1.82.81,25.89.7,45.62C51.51,147.91,41.31,140.1,37.3,136.31Z"/><path class="cls-1" d="M69.47,90.19c.44-13.42,0-13.46,4.2-14.82,2.06-.52,2.92-.86,2.92-1.72,0-1-.2-1.2-2.44-1.2-4.13,0-5.8.42-8.34.46-1.32,0-4.84-.46-7.59-.46-2.24,0-2.1.69-2.1,1.55,0,.69,1.72,1.2,3.61,1.55,3.31.58,3.1,3.87,3.35,15.27a2,2,0,0,0,2.5,1.88L68,92.06A2,2,0,0,0,69.47,90.19Z"/></svg>