<?xml version="1.0" encoding="utf-8"?>
<!-- Generator: Adobe Illustrator 23.0.1, SVG Export Plug-In . SVG Version: 6.00 Build 0)  -->
<svg version="1.1" id="Layer_1" xmlns="http://www.w3.org/2000/svg" xmlns:xlink="http://www.w3.org/1999/xlink" x="0px" y="0px"
	 viewBox="0 0 1424.8 527.8" style="enable-background:new 0 0 1424.8 527.8;" xml:space="preserve">
<style type="text/css">
	.st0{fill:#FFFFFF;}
</style>
<g>
	<g>
		<g>
			<path class="st0" d="M371.4,253.2H366v8.7h5.4c2.4,0,4.5-1.9,4.5-4.5C375.9,255.1,373.9,253.2,371.4,253.2z"/>
			<path class="st0" d="M269.3,267.5c-1.5,0-2.8,1.2-3.1,2.7h6.1C272.2,268.6,270.7,267.5,269.3,267.5z"/>
			<path class="st0" d="M361,56c-22.6,0-43.6,11.2-56.1,30l-19.7,29.6c-17,25.6-45.6,40.8-76.3,40.8h-16.8
				c-74.3,0-134.8,59.9-135.9,133.9h0v2v2v25.3c0,4.5,3.7,8.2,8.2,8.2h356c4.5,0,8.2-3.7,8.2-8.2v-25.3v-4.1V123.5
				C428.5,86.3,398.2,56,361,56z M76.3,316.8c-4.3,0-7.7-3.5-7.7-7.7c0-4.3,3.5-7.7,7.7-7.7c4.3,0,7.7,3.5,7.7,7.7
				C84,313.4,80.6,316.8,76.3,316.8z M106.3,316.8c-4.3,0-7.7-3.5-7.7-7.7c0-4.3,3.5-7.7,7.7-7.7c4.3,0,7.7,3.5,7.7,7.7
				C114,313.4,110.5,316.8,106.3,316.8z M136.2,316.8c-4.3,0-7.7-3.5-7.7-7.7c0-4.3,3.5-7.7,7.7-7.7c4.3,0,7.7,3.5,7.7,7.7
				C143.9,313.4,140.4,316.8,136.2,316.8z M166.1,316.8c-4.3,0-7.7-3.5-7.7-7.7c0-4.3,3.5-7.7,7.7-7.7c4.3,0,7.7,3.5,7.7,7.7
				C173.8,313.4,170.4,316.8,166.1,316.8z M196.1,316.8c-4.3,0-7.7-3.5-7.7-7.7c0-4.3,3.5-7.7,7.7-7.7s7.7,3.5,7.7,7.7
				C203.8,313.4,200.3,316.8,196.1,316.8z M197,285.3c-7.4,0-11.5-3.1-12.8-4.4c-0.6-0.6-0.7-0.8-0.3-1.6l2.7-4.7
				c0.5-0.7,1.5-0.6,1.9-0.3c0.2,0.1,4.3,3.1,8.1,3.1c2.3,0,3.9-1.4,3.9-3.4c0-2.4-2-4.2-5.9-5.7c-4.9-1.9-11-5.7-11-12.6
				c0-5.6,4.4-11.3,13.1-11.3c5.9,0,10.5,3,12.2,4.3c0.7,0.4,0.6,1.4,0.3,1.8l-2.9,4.4c-0.4,0.6-1.4,1.1-1.9,0.7
				c-0.5-0.3-4.7-3.4-8.1-3.4c-2,0-3.6,1.4-3.6,2.9c0,2.1,1.7,3.7,6.2,5.5c4.4,1.8,11.5,5.2,11.5,13
				C210.4,279.3,205.4,285.3,197,285.3z M226,316.8c-4.3,0-7.7-3.5-7.7-7.7c0-4.3,3.5-7.7,7.7-7.7c4.3,0,7.7,3.5,7.7,7.7
				C233.7,313.4,230.3,316.8,226,316.8z M235.8,273.6c-0.1,0.6-0.6,1-1.1,1h-13.7c0.2,1.5,1.4,3.8,4.4,3.8c1.4,0,3.1-0.7,4-1.4
				c0.5-0.4,1.1-0.4,1.4,0l2.8,3.4c0.3,0.5,0.5,1.1-0.1,1.6c-2,2-4.8,3.2-8.4,3.2c-6.8,0-11.9-5.4-11.9-11.9
				c0-6.4,5.1-11.9,11.8-11.9c5.8,0,10.8,4.4,10.8,10.7C235.9,272.5,235.9,273.2,235.8,273.6z M248.2,283.6c0,0.7-0.3,1.1-1.3,1.1
				h-5.8c-0.6,0-1.1-0.5-1.1-1.1V263c0-0.6,0.5-1.1,1.1-1.1h2.7c0.6,0,0.9,0.3,1,0.7l1,2.5c1.1-1.6,3.2-3.8,6.2-3.8
				c3.1,0,5.3,1.1,4.6,2.4l-2.8,4.6c-0.2,0.4-0.6,0.7-1.3,0.5c-0.3-0.1-0.9-0.3-1.4-0.3c-1.7,0-3,1.3-3,3.2V283.6z M255.9,316.8
				c-4.3,0-7.7-3.5-7.7-7.7c0-4.3,3.5-7.7,7.7-7.7c4.3,0,7.7,3.5,7.7,7.7C263.7,313.4,260.2,316.8,255.9,316.8z M269.6,285.3
				c-6.8,0-11.9-5.4-11.9-11.9c0-6.4,5.1-11.9,11.8-11.9c5.8,0,10.8,4.4,10.8,10.7c0,0.4-0.1,1.1-0.1,1.5c-0.1,0.6-0.6,1-1.1,1
				h-13.7c0.2,1.5,1.4,3.8,4.4,3.8c1.4,0,3.1-0.7,4-1.4c0.5-0.4,1.1-0.4,1.4,0l2.8,3.4c0.3,0.5,0.5,1.1-0.1,1.6
				C276,284,273.2,285.3,269.6,285.3z M285.9,316.8c-4.3,0-7.7-3.5-7.7-7.7c0-4.3,3.5-7.7,7.7-7.7c4.3,0,7.7,3.5,7.7,7.7
				C293.6,313.4,290.1,316.8,285.9,316.8z M301.7,284.7c-0.6,0-1.1-0.5-1.1-1.1V273c0-2.3-1.3-4.3-3.9-4.3c-2.3,0-4.3,1.6-4.3,4
				v10.9c0,0.5-0.2,1.1-1,1.1h-6c-0.6,0-1.1-0.5-1.1-1.1V263c0-0.6,0.5-1.1,1.1-1.1h2.7c0.3,0,0.9,0.3,1,0.7l0.9,2.3
				c1.3-1.4,3.9-3.5,8-3.5c7.1,0,10.8,5.4,10.8,11.9v10.4c0,0.6-0.5,1.1-1.1,1.1H301.7z M315.8,316.8c-4.3,0-7.7-3.5-7.7-7.7
				c0-4.3,3.5-7.7,7.7-7.7c4.3,0,7.7,3.5,7.7,7.7C323.5,313.4,320.1,316.8,315.8,316.8z M316.3,284.7c-0.6,0-1-0.5-1-1.1V246
				c0-0.6,0.5-1.1,1-1.1h13.9c11,0,20,8.9,20,19.9c0,11-9,20-20,20H316.3z M345.8,316.8c-4.3,0-7.7-3.5-7.7-7.7
				c0-4.3,3.5-7.7,7.7-7.7c4.3,0,7.7,3.5,7.7,7.7C353.5,313.4,350,316.8,345.8,316.8z M375.7,316.8c-4.3,0-7.7-3.5-7.7-7.7
				c0-4.3,3.5-7.7,7.7-7.7c4.3,0,7.7,3.5,7.7,7.7C383.4,313.4,379.9,316.8,375.7,316.8z M372,270.2h-6v13.4c0,0.6-0.5,1.1-1.1,1.1
				h-6.7c-0.6,0-1.1-0.5-1.1-1.1V246c0-0.6,0.5-1.1,1.1-1.1h13.7c7,0,12.7,5.7,12.7,12.6C384.7,264.5,378.9,270.2,372,270.2z
				 M405.6,316.8c-4.3,0-7.7-3.5-7.7-7.7c0-4.3,3.5-7.7,7.7-7.7c4.3,0,7.7,3.5,7.7,7.7C413.3,313.4,409.9,316.8,405.6,316.8z
				 M413.9,252.2c0,0.6-0.5,1.1-1.1,1.1h-8.1v30.4c0,0.6-0.5,1.1-1.1,1.1h-6.8c-0.6,0-1.1-0.5-1.1-1.1v-30.4h-8.1
				c-0.6,0-1.1-0.5-1.1-1.1V246c0-0.6,0.5-1.1,1.1-1.1h25.3c0.6,0,1.1,0.5,1.1,1.1V252.2z"/>
			<path class="st0" d="M224.9,267.5c-1.5,0-2.8,1.2-3.1,2.7h6.1C227.8,268.6,226.4,267.5,224.9,267.5z"/>
			<path class="st0" d="M329.7,253.2h-5.5v23h5.5c6.4,0,11.1-5.1,11.1-11.5C340.7,258.3,336.1,253.2,329.7,253.2z"/>
		</g>
		<g>
			<path class="st0" d="M62.2,367.5h19.4c2,0,3.3-1.3,3.3-4V344c0-2-1.3-4-3.3-4H62.2c-2,0-4,1.3-4,4v19.4
				C58.2,365.4,60.2,367.5,62.2,367.5z"/>
			<path class="st0" d="M124.5,340h-19.4c-2,0-4,1.3-4,4v19.4c0,2,1.3,4,4,4h19.4c2,0,3.3-1.3,3.3-4V344
				C127.8,342,126.5,340,124.5,340z"/>
			<path class="st0" d="M147.3,367.5h19.4c2,0,3.3-1.3,3.3-4V344c0-2-1.3-4-3.3-4h-19.4c-2,0-4,1.3-4,4v19.4
				C143.9,365.4,145.3,367.5,147.3,367.5z"/>
			<path class="st0" d="M190.1,367.5h19.4c2,0,4-1.3,4-4V344c0-2-1.3-4-4-4h-19.4c-2,0-4,1.3-4,4v19.4
				C186.1,365.4,188.1,367.5,190.1,367.5z"/>
			<path class="st0" d="M232.3,367.5h19.4c2,0,4-1.3,4-4V344c0-2-1.3-4-4-4h-19.4c-2,0-4,1.3-4,4v19.4
				C228.9,365.4,230.3,367.5,232.3,367.5z"/>
			<path class="st0" d="M275.1,367.5h19.4c2,0,4-1.3,4-4V344c0-2-1.3-4-4-4h-19.4c-2,0-4,1.3-4,4v19.4
				C271.1,365.4,273.1,367.5,275.1,367.5z"/>
			<path class="st0" d="M337.4,340H318c-2,0-4,1.3-4,4v19.4c0,2,1.3,4,4,4h19.4c2,0,4-1.3,4-4V344C340.7,342,339.4,340,337.4,340z"
				/>
			<path class="st0" d="M360.2,367.5h19.4c2,0,4-1.3,4-4V344c0-2-1.3-4-4-4h-19.4c-2,0-4,1.3-4,4v19.4
				C356.8,365.4,358.1,367.5,360.2,367.5z"/>
			<path class="st0" d="M422.4,340H403c-2,0-4,1.3-4,4v19.4c0,2,1.3,4,4,4h19.4c2,0,4-1.3,4-4V344C426.4,342,424.4,340,422.4,340z"
				/>
			<path class="st0" d="M124.5,378.2H62.2c-2,0-4,1.3-4,4v19.4c0,2,1.3,4,4,4h62.3c2,0,4-1.3,4-4v-19.4
				C127.8,380.2,126.5,378.2,124.5,378.2z"/>
			<path class="st0" d="M147.3,405.6h19.4c2,0,3.3-1.3,3.3-3.3v-19.4c0-2-1.3-4-3.3-4h-19.4c-2,0-4,1.3-4,4v19.4
				C143.9,403.6,145.3,405.6,147.3,405.6z"/>
			<path class="st0" d="M190.1,405.6h19.4c2,0,4-1.3,4-3.3v-19.4c0-2-1.3-4-4-4h-19.4c-2,0-4,1.3-4,4v19.4
				C186.1,403.6,188.1,405.6,190.1,405.6z"/>
			<path class="st0" d="M232.3,405.6h19.4c2,0,4-1.3,4-3.3v-19.4c0-2-1.3-4-4-4h-19.4c-2,0-4,1.3-4,4v19.4
				C228.9,403.6,230.3,405.6,232.3,405.6z"/>
			<path class="st0" d="M275.1,405.6h19.4c2,0,4-1.3,4-3.3v-19.4c0-2-1.3-4-4-4h-19.4c-2,0-4,1.3-4,4v19.4
				C271.1,403.6,273.1,405.6,275.1,405.6z"/>
			<path class="st0" d="M337.4,378.2H318c-2,0-4,1.3-4,4v19.4c0,2,1.3,3.3,4,3.3h19.4c2,0,4-1.3,4-3.3v-19.4
				C340.7,380.2,339.4,378.2,337.4,378.2z"/>
			<path class="st0" d="M422.4,378.2h-62.3c-2,0-4,1.3-4,4v19.4c0,2,1.3,4,4,4h62.3c2,0,4-1.3,4-4v-19.4
				C426.4,380.2,424.4,378.2,422.4,378.2z"/>
			<path class="st0" d="M81.6,417H62.2c-2,0-4,1.3-4,3.3v19.4c0,2,1.3,4,4,4h19.4c2,0,3.3-1.3,3.3-4v-19.4
				C85.7,418.3,83.7,417,81.6,417z"/>
			<path class="st0" d="M124.5,417h-19.4c-2,0-4,1.3-4,3.3v19.4c0,2,1.3,4,4,4h19.4c2,0,3.3-1.3,3.3-4v-19.4
				C127.8,418.3,126.5,417,124.5,417z"/>
			<path class="st0" d="M337.4,417H147.3c-2,0-4,1.3-4,4v19.4c0,2,1.3,4,4,4h190.1c2,0,4-1.3,4-4V421
				C340.7,418.3,339.4,417,337.4,417z"/>
			<path class="st0" d="M380.2,417h-19.4c-2,0-4,1.3-4,3.3v19.4c0,2,1.3,4,4,4h19.4c2,0,4-1.3,4-4v-19.4
				C383.6,418.3,382.2,417,380.2,417z"/>
			<path class="st0" d="M422.4,417H403c-2,0-4,1.3-4,3.3v19.4c0,2,1.3,4,4,4h19.4c2,0,4-1.3,4-4v-19.4
				C426.4,418.3,424.4,417,422.4,417z"/>
		</g>
	</g>
	<g>
		<path class="st0" d="M478.8,132.2l3.9-7c0.7-1.1,2.3-0.9,2.9-0.5c0.3,0.2,6.4,4.6,11.9,4.6c3.4,0,5.8-2.1,5.8-5
			c0-3.5-2.9-6.2-8.6-8.5c-7.2-2.9-16.3-8.5-16.3-18.5c0-8.3,6.5-16.7,19.4-16.7c8.7,0,15.4,4.4,18,6.3c1,0.6,0.8,2.1,0.5,2.7
			l-4.3,6.5c-0.6,0.9-2.1,1.7-2.9,1.1c-0.8-0.4-6.9-5-12-5c-3,0-5.3,2-5.3,4.3c0,3.1,2.5,5.5,9.1,8.1c6.5,2.6,16.9,7.7,16.9,19.1
			c0,8.6-7.5,17.4-19.8,17.4c-10.9,0-16.9-4.5-18.9-6.5C478.4,133.7,478.2,133.4,478.8,132.2z"/>
		<path class="st0" d="M528.2,83.1c0-0.8,0.7-1.6,1.6-1.6h34.7c0.9,0,1.6,0.8,1.6,1.6v9.1c0,0.8-0.7,1.6-1.6,1.6h-23.2v10.4h19.1
			c0.8,0,1.6,0.8,1.6,1.6v9.1c0,0.9-0.8,1.6-1.6,1.6h-19.1v11.3h23.2c0.9,0,1.6,0.8,1.6,1.6v9.1c0,0.8-0.7,1.6-1.6,1.6h-34.7
			c-0.9,0-1.6-0.8-1.6-1.6V83.1z"/>
		<path class="st0" d="M577.3,83.1c0-0.8,0.7-1.6,1.6-1.6H604c10.1,0,18.3,8.1,18.3,18.1c0,7.7-5.1,13.9-12.4,16.9l11.5,21.3
			c0.6,1.1,0,2.4-1.4,2.4h-11.2c-0.7,0-1.2-0.4-1.3-0.8l-11.2-22.2h-5.8v21.4c0,0.8-0.8,1.6-1.6,1.6h-10c-0.9,0-1.6-0.8-1.6-1.6
			V83.1z M602.9,106.5c3.4,0,6.4-3.2,6.4-6.7c0-3.5-2.9-6.4-6.4-6.4h-12.4v13.1H602.9z"/>
		<path class="st0" d="M633.5,83.1c0-0.8,0.7-1.6,1.6-1.6h34.7c0.9,0,1.6,0.8,1.6,1.6v9.1c0,0.8-0.7,1.6-1.6,1.6h-23.2v10.4h19.1
			c0.8,0,1.6,0.8,1.6,1.6v9.1c0,0.9-0.8,1.6-1.6,1.6h-19.1v11.3h23.2c0.9,0,1.6,0.8,1.6,1.6v9.1c0,0.8-0.7,1.6-1.6,1.6h-34.7
			c-0.9,0-1.6-0.8-1.6-1.6V83.1z"/>
		<path class="st0" d="M682.6,82.1c0-0.8,0.8-1.5,1.6-1.5h2.1l33.5,32.2h0.1V83.1c0-0.8,0.7-1.6,1.6-1.6h10.1c0.8,0,1.6,0.8,1.6,1.6
			v56.5c0,0.8-0.8,1.5-1.6,1.5h-1.3c-0.3,0-0.9-0.3-1.1-0.4l-33.1-33.3h-0.1v31.3c0,0.8-0.7,1.6-1.6,1.6h-10c-0.8,0-1.6-0.8-1.6-1.6
			L682.6,82.1z"/>
		<path class="st0" d="M747.5,83.1c0-0.8,0.8-1.6,1.6-1.6h10.1c0.8,0,1.6,0.8,1.6,1.6v55.5c0,0.8-0.8,1.6-1.6,1.6h-10.1
			c-0.8,0-1.6-0.8-1.6-1.6V83.1z"/>
		<path class="st0" d="M771.8,132.2l3.9-7c0.7-1.1,2.3-0.9,2.9-0.5c0.3,0.2,6.4,4.6,11.9,4.6c3.4,0,5.8-2.1,5.8-5
			c0-3.5-2.9-6.2-8.6-8.5c-7.2-2.9-16.3-8.5-16.3-18.5c0-8.3,6.5-16.7,19.4-16.7c8.7,0,15.4,4.4,18,6.3c1,0.6,0.8,2.1,0.5,2.7
			l-4.3,6.5c-0.6,0.9-2.1,1.7-2.9,1.1c-0.8-0.4-6.9-5-12-5c-3,0-5.3,2-5.3,4.3c0,3.1,2.5,5.5,9.1,8.1c6.5,2.6,16.9,7.7,16.9,19.1
			c0,8.6-7.5,17.4-19.8,17.4c-10.9,0-16.9-4.5-18.9-6.5C771.4,133.7,771.1,133.4,771.8,132.2z"/>
		<path class="st0" d="M817.8,132.2l3.9-7c0.7-1.1,2.3-0.9,2.9-0.5c0.3,0.2,6.4,4.6,11.9,4.6c3.4,0,5.8-2.1,5.8-5
			c0-3.5-2.9-6.2-8.6-8.5c-7.2-2.9-16.3-8.5-16.3-18.5c0-8.3,6.5-16.7,19.4-16.7c8.7,0,15.4,4.4,18,6.3c1,0.6,0.8,2.1,0.5,2.7
			l-4.3,6.5c-0.6,0.9-2.1,1.7-2.9,1.1c-0.8-0.4-6.9-5-12-5c-3,0-5.3,2-5.3,4.3c0,3.1,2.5,5.5,9.1,8.1c6.5,2.6,16.9,7.7,16.9,19.1
			c0,8.6-7.5,17.4-19.8,17.4c-10.9,0-16.9-4.5-18.9-6.5C817.4,133.7,817.1,133.4,817.8,132.2z"/>
		<path class="st0" d="M867.1,83.1c0-0.8,0.8-1.6,1.6-1.6h10.1c0.8,0,1.6,0.8,1.6,1.6v55.5c0,0.8-0.8,1.6-1.6,1.6h-10.1
			c-0.8,0-1.6-0.8-1.6-1.6V83.1z"/>
		<path class="st0" d="M900.6,82c0.1-0.8,0.8-1.3,1.5-1.3h1.3c0.4,0,1.2,0.3,1.4,0.8l19.5,36.2h0.2l19.5-36.2c0.3-0.5,1-0.8,1.4-0.8
			h1.3c0.7,0,1.4,0.6,1.5,1.3l9.5,56.4c0.2,1.1-0.6,1.8-1.6,1.8h-9.9c-0.8,0-1.5-0.7-1.6-1.3l-3.8-25.9h-0.2l-14.1,27.2
			c-0.3,0.5-1,0.9-1.4,0.9h-1.5c-0.5,0-1.2-0.4-1.4-0.9L908,112.9h-0.2l-3.7,25.9c-0.1,0.7-0.8,1.3-1.6,1.3h-9.9
			c-1,0-1.8-0.8-1.6-1.8L900.6,82z"/>
		<path class="st0" d="M960.9,138l26.3-56.5c0.3-0.5,0.8-0.9,1.4-0.9h0.8c0.6,0,1.2,0.4,1.4,0.9l26.3,56.5c0.5,1.1-0.2,2.2-1.4,2.2
			h-9.3c-1.5,0-2.2-0.5-2.9-2.1l-3-6.6h-22.8l-3,6.7c-0.4,1-1.3,2-3,2h-9.2C961,140.2,960.4,139.1,960.9,138z M995.3,120.1
			l-6.4-13.8h-0.1l-6.3,13.8H995.3z"/>
		<path class="st0" d="M482.2,183.7c0-0.8,0.7-1.6,1.5-1.6h20.5c16.2,0,29.4,13.2,29.4,29.3c0,16.3-13.3,29.4-29.4,29.4h-20.5
			c-0.8,0-1.5-0.8-1.5-1.6V183.7z M503.3,228.4c9.5,0,16.4-7.5,16.4-17c0-9.5-6.9-16.9-16.4-16.9h-8.1v34H503.3z"/>
		<path class="st0" d="M543.8,183.7c0-0.8,0.7-1.6,1.6-1.6h34.7c0.9,0,1.6,0.8,1.6,1.6v9.1c0,0.8-0.7,1.6-1.6,1.6h-23.2v10.4h19.1
			c0.8,0,1.6,0.8,1.6,1.6v9.1c0,0.9-0.8,1.6-1.6,1.6h-19.1v11.3h23.2c0.9,0,1.6,0.8,1.6,1.6v9.1c0,0.8-0.7,1.6-1.6,1.6h-34.7
			c-0.9,0-1.6-0.8-1.6-1.6V183.7z"/>
		<path class="st0" d="M585.4,184.3c-0.5-1.1,0.2-2.2,1.4-2.2H598c0.7,0,1.3,0.5,1.4,0.9l13.8,30.6h0.5l13.8-30.6
			c0.2-0.4,0.8-0.9,1.4-0.9h11.2c1.3,0,1.9,1.1,1.4,2.2l-26.3,56.5c-0.3,0.5-0.8,0.9-1.4,0.9H613c-0.7,0-1.2-0.4-1.4-0.9
			L585.4,184.3z"/>
		<path class="st0" d="M648.5,183.7c0-0.8,0.7-1.6,1.6-1.6h34.7c0.9,0,1.6,0.8,1.6,1.6v9.1c0,0.8-0.7,1.6-1.6,1.6h-23.2v10.4h19.1
			c0.8,0,1.6,0.8,1.6,1.6v9.1c0,0.9-0.8,1.6-1.6,1.6h-19.1v11.3h23.2c0.9,0,1.6,0.8,1.6,1.6v9.1c0,0.8-0.7,1.6-1.6,1.6h-34.7
			c-0.9,0-1.6-0.8-1.6-1.6V183.7z"/>
		<path class="st0" d="M697.7,183.7c0-0.8,0.7-1.6,1.6-1.6h10c0.8,0,1.6,0.8,1.6,1.6v44.8h20c0.9,0,1.6,0.8,1.6,1.6v9.1
			c0,0.8-0.7,1.6-1.6,1.6h-31.5c-0.9,0-1.6-0.8-1.6-1.6V183.7z"/>
		<path class="st0" d="M766,181.3c16.8,0,30.2,13.5,30.2,30.3s-13.4,30.1-30.2,30.1s-30.1-13.3-30.1-30.1S749.3,181.3,766,181.3z
			 M766,228.2c9.2,0,16.8-7.5,16.8-16.7c0-9.2-7.6-16.9-16.8-16.9c-9.1,0-16.7,7.6-16.7,16.9C749.3,220.7,756.9,228.2,766,228.2z"/>
		<path class="st0" d="M806.4,183.7c0-0.8,0.7-1.6,1.6-1.6h20.2c10.3,0,18.8,8.4,18.8,18.5c0,10.4-8.5,18.9-18.7,18.9h-8.8v19.7
			c0,0.8-0.8,1.6-1.6,1.6H808c-0.9,0-1.6-0.8-1.6-1.6V183.7z M827.4,207.3c3.6,0,6.6-2.9,6.6-6.6c0-3.5-3-6.2-6.6-6.2h-8v12.8H827.4
			z"/>
		<path class="st0" d="M860.7,182.6c0.1-0.8,0.8-1.3,1.5-1.3h1.3c0.4,0,1.2,0.3,1.4,0.8l19.5,36.2h0.2l19.5-36.2
			c0.3-0.5,1-0.8,1.4-0.8h1.3c0.7,0,1.4,0.6,1.5,1.3l9.5,56.4c0.2,1.1-0.6,1.8-1.6,1.8h-9.9c-0.8,0-1.5-0.7-1.6-1.3l-3.8-25.9h-0.2
			l-14.1,27.2c-0.3,0.5-1,0.9-1.4,0.9h-1.5c-0.5,0-1.2-0.4-1.4-0.9l-14.2-27.2H868l-3.7,25.9c-0.1,0.7-0.8,1.3-1.6,1.3h-9.9
			c-1,0-1.8-0.8-1.6-1.8L860.7,182.6z"/>
		<path class="st0" d="M928.6,183.7c0-0.8,0.7-1.6,1.6-1.6h34.7c0.9,0,1.6,0.8,1.6,1.6v9.1c0,0.8-0.7,1.6-1.6,1.6h-23.2v10.4h19.1
			c0.8,0,1.6,0.8,1.6,1.6v9.1c0,0.9-0.8,1.6-1.6,1.6h-19.1v11.3h23.2c0.9,0,1.6,0.8,1.6,1.6v9.1c0,0.8-0.7,1.6-1.6,1.6h-34.7
			c-0.9,0-1.6-0.8-1.6-1.6V183.7z"/>
		<path class="st0" d="M977.6,182.8c0-0.8,0.8-1.5,1.6-1.5h2.1l33.5,32.2h0.1v-29.8c0-0.8,0.7-1.6,1.6-1.6h10.1
			c0.8,0,1.6,0.8,1.6,1.6v56.5c0,0.8-0.8,1.5-1.6,1.5h-1.3c-0.3,0-0.9-0.3-1.1-0.4L991,207.9h-0.1v31.3c0,0.8-0.7,1.6-1.6,1.6h-10
			c-0.8,0-1.6-0.8-1.6-1.6L977.6,182.8z"/>
		<path class="st0" d="M1050.1,194.4h-12c-0.9,0-1.6-0.8-1.6-1.6v-9.1c0-0.8,0.7-1.6,1.6-1.6h37.2c0.9,0,1.6,0.8,1.6,1.6v9.1
			c0,0.8-0.7,1.6-1.6,1.6h-12v44.8c0,0.8-0.8,1.6-1.6,1.6h-10.1c-0.8,0-1.6-0.8-1.6-1.6V194.4z"/>
		<path class="st0" d="M1111.2,219.4c3.8,0,6.5,1.3,6.5,1.3c0-3.3-0.5-4.9-4.5-4.9c-2.3,0-6.2,0.6-8.4,1.3c-1.3,0.4-1.8-0.5-2-1.8
			l-0.8-5.3c-0.3-1.4,0.5-2,1.3-2.3c0.8-0.3,6.6-1.3,11.2-1.3c10.4,0,14.2,4.4,14.2,14.3v18.5c0,0.8-0.8,1.6-1.6,1.6h-3.7
			c-0.5,0-1.1-0.2-1.5-1.1l-1.2-2.3c-1.9,1.8-4.9,4.2-10.1,4.2c-6.6,0-11.6-4.4-11.6-11.1C1098.9,224.1,1103.6,219.4,1111.2,219.4z
			 M1113.4,233.5c2,0,3.7-1.7,3.7-3.7c-0.1-1.9-1.7-3.5-3.7-3.5s-3.6,1.6-3.6,3.5C1109.8,231.8,1111.4,233.5,1113.4,233.5z"/>
		<path class="st0" d="M1137.2,208.9c0-0.9,0.8-1.6,1.6-1.6h3.9c0.5,0,1.3,0.4,1.5,1l1.3,3.4c1.8-2,5.7-5.2,11.8-5.2
			c10.4,0,15.9,8,15.9,17.5v15.3c0,0.8-0.8,1.6-1.6,1.6h-9c-0.9,0-1.6-0.8-1.6-1.6v-15.7c0-3.4-1.9-6.3-5.7-6.3
			c-3.4,0-6.4,2.4-6.4,5.9v16.1c0,0.8-0.3,1.6-1.5,1.6h-8.8c-0.8,0-1.6-0.8-1.6-1.6V208.9z"/>
		<path class="st0" d="M1195.7,206.4c2.9,0,6,1,7,1.6v-24.3c0-0.8,0.8-1.6,1.6-1.6h9.3c0.8,0,1.6,0.8,1.6,1.6v55.5
			c0,0.8-0.8,1.6-1.6,1.6h-3.9c-0.8,0-1.4-0.8-1.8-1.7l-1-2.8c0,0-3.9,5.3-11.2,5.3c-9.5,0-16.6-8-16.6-17.6
			C1179,212.2,1186.7,206.4,1195.7,206.4z M1197.3,230.8c3.9,0,6.7-3,6.7-6.9c0-3.8-2.9-6.7-6.7-6.7c-3.9,0-6.8,2.9-6.8,6.7
			C1190.5,227.8,1193.4,230.8,1197.3,230.8z"/>
		<path class="st0" d="M482.2,284.4c0-0.8,0.7-1.6,1.6-1.6H504c10.3,0,18.8,8.4,18.8,18.5c0,10.4-8.5,18.9-18.7,18.9h-8.8v19.7
			c0,0.8-0.8,1.6-1.6,1.6h-9.9c-0.9,0-1.6-0.8-1.6-1.6V284.4z M503.3,307.9c3.6,0,6.6-2.9,6.6-6.6c0-3.5-3-6.2-6.6-6.2h-8v12.8
			H503.3z"/>
		<path class="st0" d="M531.4,284.4c0-0.8,0.7-1.6,1.6-1.6H558c10.1,0,18.3,8.1,18.3,18.1c0,7.7-5.1,13.9-12.4,16.9l11.5,21.3
			c0.6,1.1,0,2.4-1.4,2.4h-11.2c-0.7,0-1.2-0.4-1.3-0.8l-11.2-22.2h-5.8v21.4c0,0.8-0.8,1.6-1.6,1.6h-10c-0.9,0-1.6-0.8-1.6-1.6
			V284.4z M556.9,307.8c3.4,0,6.4-3.2,6.4-6.7c0-3.5-2.9-6.4-6.4-6.4h-12.4v13.1H556.9z"/>
		<path class="st0" d="M587.5,284.4c0-0.8,0.7-1.6,1.6-1.6h34.7c0.9,0,1.6,0.8,1.6,1.6v9.1c0,0.8-0.7,1.6-1.6,1.6h-23.2v10.4h19.1
			c0.8,0,1.6,0.8,1.6,1.6v9.1c0,0.9-0.8,1.6-1.6,1.6h-19.1v11.3h23.2c0.9,0,1.6,0.8,1.6,1.6v9.1c0,0.8-0.7,1.6-1.6,1.6h-34.7
			c-0.9,0-1.6-0.8-1.6-1.6V284.4z"/>
		<path class="st0" d="M633.3,333.5l3.9-7c0.7-1.1,2.3-0.9,2.9-0.5c0.3,0.2,6.4,4.6,11.9,4.6c3.4,0,5.8-2.1,5.8-5
			c0-3.5-2.9-6.2-8.6-8.5c-7.2-2.9-16.3-8.5-16.3-18.5c0-8.3,6.5-16.7,19.4-16.7c8.7,0,15.4,4.4,18,6.3c1,0.6,0.8,2.1,0.5,2.7
			l-4.3,6.5c-0.6,0.9-2.1,1.7-2.9,1.1c-0.8-0.4-6.9-5-12-5c-3,0-5.3,2-5.3,4.3c0,3.1,2.5,5.5,9.1,8.1c6.5,2.6,16.9,7.7,16.9,19.1
			c0,8.6-7.5,17.4-19.8,17.4c-10.9,0-16.9-4.5-18.9-6.5C632.9,335,632.7,334.7,633.3,333.5z"/>
		<path class="st0" d="M682.7,284.4c0-0.8,0.7-1.6,1.6-1.6H719c0.9,0,1.6,0.8,1.6,1.6v9.1c0,0.8-0.7,1.6-1.6,1.6h-23.2v10.4h19.1
			c0.8,0,1.6,0.8,1.6,1.6v9.1c0,0.9-0.8,1.6-1.6,1.6h-19.1v11.3H719c0.9,0,1.6,0.8,1.6,1.6v9.1c0,0.8-0.7,1.6-1.6,1.6h-34.7
			c-0.9,0-1.6-0.8-1.6-1.6V284.4z"/>
		<path class="st0" d="M731.8,284.4c0-0.8,0.7-1.6,1.6-1.6h25.1c10.1,0,18.3,8.1,18.3,18.1c0,7.7-5.1,13.9-12.4,16.9l11.5,21.3
			c0.6,1.1,0,2.4-1.4,2.4h-11.2c-0.7,0-1.2-0.4-1.3-0.8l-11.2-22.2H745v21.4c0,0.8-0.8,1.6-1.6,1.6h-10c-0.9,0-1.6-0.8-1.6-1.6
			V284.4z M757.4,307.8c3.4,0,6.4-3.2,6.4-6.7c0-3.5-2.9-6.4-6.4-6.4H745v13.1H757.4z"/>
		<path class="st0" d="M780.5,284.9c-0.5-1.1,0.2-2.2,1.4-2.2H793c0.7,0,1.3,0.5,1.4,0.9l13.8,30.6h0.5l13.8-30.6
			c0.2-0.4,0.8-0.9,1.4-0.9h11.2c1.3,0,1.9,1.1,1.4,2.2l-26.3,56.5c-0.3,0.5-0.8,0.9-1.4,0.9h-0.8c-0.7,0-1.2-0.4-1.4-0.9
			L780.5,284.9z"/>
		<path class="st0" d="M831.3,339.3l26.3-56.5c0.3-0.5,0.8-0.9,1.4-0.9h0.8c0.6,0,1.2,0.4,1.4,0.9l26.3,56.5
			c0.5,1.1-0.2,2.2-1.4,2.2h-9.3c-1.5,0-2.2-0.5-2.9-2.1l-3-6.6H848l-3,6.7c-0.4,1-1.3,2-3,2h-9.2
			C831.4,341.5,830.8,340.4,831.3,339.3z M865.8,321.3l-6.4-13.8h-0.1l-6.3,13.8H865.8z"/>
		<path class="st0" d="M898.9,295.1h-12c-0.9,0-1.6-0.8-1.6-1.6v-9.1c0-0.8,0.7-1.6,1.6-1.6h37.2c0.9,0,1.6,0.8,1.6,1.6v9.1
			c0,0.8-0.7,1.6-1.6,1.6h-12v44.8c0,0.8-0.8,1.6-1.6,1.6h-10.1c-0.8,0-1.6-0.8-1.6-1.6V295.1z"/>
		<path class="st0" d="M934.1,284.4c0-0.8,0.8-1.6,1.6-1.6h10.1c0.8,0,1.6,0.8,1.6,1.6v55.5c0,0.8-0.8,1.6-1.6,1.6h-10.1
			c-0.8,0-1.6-0.8-1.6-1.6V284.4z"/>
		<path class="st0" d="M987.6,281.9c16.8,0,30.2,13.5,30.2,30.3s-13.4,30.1-30.2,30.1s-30.1-13.3-30.1-30.1S970.8,281.9,987.6,281.9
			z M987.6,328.9c9.2,0,16.8-7.5,16.8-16.7c0-9.2-7.5-16.9-16.8-16.9c-9.1,0-16.7,7.6-16.7,16.9
			C970.9,321.3,978.5,328.9,987.6,328.9z"/>
		<path class="st0" d="M1027.9,283.4c0-0.8,0.8-1.5,1.6-1.5h2.1l33.5,32.2h0.1v-29.8c0-0.8,0.7-1.6,1.6-1.6h10.1
			c0.8,0,1.6,0.8,1.6,1.6v56.5c0,0.8-0.8,1.5-1.6,1.5h-1.3c-0.3,0-0.9-0.3-1.1-0.4l-33.1-33.3h-0.1v31.3c0,0.8-0.7,1.6-1.6,1.6h-10
			c-0.8,0-1.6-0.8-1.6-1.6L1027.9,283.4z"/>
		<path class="st0" d="M1110,318.6h-2.2c-0.8,0-1.5-0.8-1.5-1.6v-7.5c0-0.9,0.7-1.6,1.5-1.6h2.2v-9.3c0-0.8,0.8-1.6,1.6-1.6h9
			c0.8,0,1.5,0.8,1.5,1.6v9.3h6.2c0.9,0,1.6,0.7,1.6,1.6v7.5c0,0.8-0.7,1.6-1.6,1.6h-6.2v10.5c0,1.8,1.3,2,2.3,2
			c1.2,0,2.4-0.4,3.3-0.6c0.8-0.2,1.6,0.2,1.8,1.1l1.8,7c0.2,0.8-0.3,1.7-1.1,1.9c0,0-6,1.8-10.1,1.8c-6.4,0-10.1-4-10.1-11.7V318.6
			z"/>
		<path class="st0" d="M1137.5,284.4c0-0.8,0.8-1.6,1.6-1.6h9.3c0.8,0,1.6,0.8,1.6,1.6V309c2.5-1.3,5.3-1.9,7.8-1.9
			c10.6,0,16,8.3,16,17.6v15.2c0,0.8-0.8,1.6-1.6,1.6h-8.9c-0.9,0-1.6-0.8-1.6-1.6v-15.4c0-3.7-2.4-6.6-6.1-6.6
			c-2.7,0-5.6,1.5-5.6,6.6v15.4c0,1.1-0.4,1.6-1.8,1.6h-9.1c-0.8,0-1.6-0.8-1.6-1.6V284.4z"/>
		<path class="st0" d="M1181.9,309.5c0-0.9,0.8-1.6,1.6-1.6h3.9c0.9,0,1.3,0.5,1.5,1l1.5,3.7c1.7-2.4,4.8-5.5,9.1-5.5
			c4.6,0,7.9,1.7,6.7,3.6l-4.1,6.7c-0.3,0.6-0.9,1.1-1.8,0.8c-0.4-0.2-1.3-0.4-2-0.4c-2.5,0-4.4,1.9-4.4,4.8v17.4
			c0,1-0.5,1.6-1.8,1.6h-8.6c-0.8,0-1.6-0.8-1.6-1.6V309.5z"/>
		<path class="st0" d="M1225.4,307.1c9.6,0,17.4,8.1,17.4,17.5c0,9.6-7.9,17.7-17.4,17.7c-9.6,0-17.4-8.1-17.4-17.7
			C1207.9,315.1,1215.8,307.1,1225.4,307.1z M1225.4,331.5c3.7,0,6.6-3.1,6.6-6.9c0-3.7-2.9-6.7-6.6-6.7c-3.7,0-6.6,3-6.6,6.7
			C1218.8,328.4,1221.7,331.5,1225.4,331.5z"/>
		<path class="st0" d="M1248.5,309.5c0-0.9,0.8-1.6,1.6-1.6h9c0.8,0,1.6,0.7,1.6,1.6V325c0,3.4,1.9,6.5,5.4,6.5c3.3,0,5-3.1,5-6v-16
			c0-1.3,0.9-1.6,1.8-1.6h8.6c0.8,0,1.6,0.7,1.6,1.6v30.4c0,0.8-0.8,1.6-1.6,1.6h-3.9c-0.8,0-1.3-0.6-1.6-1.2l-1.3-3.1
			c-2.2,2.1-4.9,5.1-11.3,5.1c-10,0-14.8-8.1-14.8-17.6V309.5z"/>
		<path class="st0" d="M1295.2,329.2c0,0-2.4-2.5-2.4-7.6c0-7.8,6.6-14.5,14.8-14.5h15.9c0.9,0,1.6,0.7,1.6,1.6v3.4
			c0,0.6-0.4,1.2-0.9,1.4l-4.9,1.8c0,0,3.2,2.6,3.2,8.1c0,6.1-5.6,12.7-14.5,12.7h-6c-1.8,0-2.8,0.9-2.8,2.3c0,1.6,1.4,2.3,2.7,2.3
			h10.1c7.9,0,14.4,4.8,14.4,12.2c0,8.1-5.6,14.6-18.9,14.6c-13,0-17.5-6.1-17.5-11.4c0-5,4.2-7.6,5.1-8.1v-0.3
			c-1.1-0.3-6.5-2.7-6.5-9.3C1288.5,331.8,1295.2,329.2,1295.2,329.2z M1307.3,357.7c4.2,0,6-1.7,6-3.9c0-1.8-1.5-3.5-6-3.5
			c-3,0-6,1.1-6,3.5C1301.3,356.1,1303.3,357.7,1307.3,357.7z M1307.8,326.7c2.6,0,4.4-1.8,4.4-4.4c0-2.5-1.8-4.4-4.4-4.4
			c-2.5,0-4.4,1.8-4.4,4.4C1303.4,324.9,1305.3,326.7,1307.8,326.7z"/>
		<path class="st0" d="M1331.1,284.4c0-0.8,0.8-1.6,1.6-1.6h9.3c0.8,0,1.6,0.8,1.6,1.6V309c2.5-1.3,5.3-1.9,7.8-1.9
			c10.6,0,16,8.3,16,17.6v15.2c0,0.8-0.8,1.6-1.6,1.6h-8.9c-0.9,0-1.6-0.8-1.6-1.6v-15.4c0-3.7-2.4-6.6-6.1-6.6
			c-2.7,0-5.6,1.5-5.6,6.6v15.4c0,1.1-0.4,1.6-1.8,1.6h-9.1c-0.8,0-1.6-0.8-1.6-1.6V284.4z"/>
		<path class="st0" d="M489.8,395.7h-12c-0.9,0-1.6-0.8-1.6-1.6V385c0-0.8,0.7-1.6,1.6-1.6H515c0.9,0,1.6,0.8,1.6,1.6v9.1
			c0,0.8-0.7,1.6-1.6,1.6h-12v44.8c0,0.8-0.8,1.6-1.6,1.6h-10.1c-0.8,0-1.6-0.8-1.6-1.6V395.7z"/>
		<path class="st0" d="M525,385c0-0.8,0.7-1.6,1.6-1.6h34.7c0.9,0,1.6,0.8,1.6,1.6v9.1c0,0.8-0.7,1.6-1.6,1.6h-23.2v10.4h19.1
			c0.8,0,1.6,0.8,1.6,1.6v9.1c0,0.9-0.8,1.6-1.6,1.6h-19.1v11.3h23.2c0.9,0,1.6,0.8,1.6,1.6v9.1c0,0.8-0.7,1.6-1.6,1.6h-34.7
			c-0.9,0-1.6-0.8-1.6-1.6V385z"/>
		<path class="st0" d="M600.1,382.6c8.4,0,14.6,2.6,20.3,7.8c0.8,0.7,0.8,1.7,0.1,2.3l-6.5,6.8c-0.6,0.6-1.5,0.6-2.1,0
			c-3.1-2.8-7.2-4.3-11.3-4.3c-9.5,0-16.4,7.9-16.4,17.3c0,9.3,7,17,16.5,17c3.9,0,8.2-1.4,11.2-4c0.6-0.5,1.7-0.5,2.2,0.1l6.5,7
			c0.6,0.6,0.5,1.7-0.1,2.3c-5.7,5.5-12.9,8.1-20.4,8.1c-16.8,0-30.3-13.3-30.3-30.1S583.4,382.6,600.1,382.6z"/>
		<path class="st0" d="M630.6,385c0-0.8,0.8-1.6,1.6-1.6h10c0.9,0,1.6,0.8,1.6,1.6v21.1h24V385c0-0.8,0.7-1.6,1.6-1.6h10
			c0.8,0,1.6,0.8,1.6,1.6v55.5c0,0.8-0.8,1.6-1.6,1.6h-10c-0.9,0-1.6-0.8-1.6-1.6v-22.1h-24v22.1c0,0.8-0.7,1.6-1.6,1.6h-10
			c-0.8,0-1.6-0.8-1.6-1.6V385z"/>
		<path class="st0" d="M695.2,384.1c0-0.8,0.8-1.5,1.6-1.5h2.1l33.5,32.2h0.1V385c0-0.8,0.7-1.6,1.6-1.6h10.1c0.8,0,1.6,0.8,1.6,1.6
			v56.5c0,0.8-0.8,1.5-1.6,1.5h-1.3c-0.3,0-0.9-0.3-1.1-0.4l-33.1-33.3h-0.1v31.3c0,0.8-0.7,1.6-1.6,1.6h-10c-0.8,0-1.6-0.8-1.6-1.6
			L695.2,384.1z"/>
		<path class="st0" d="M786,382.6c16.8,0,30.2,13.5,30.2,30.3S802.8,443,786,443s-30.1-13.3-30.1-30.1S769.2,382.6,786,382.6z
			 M786,429.5c9.2,0,16.8-7.6,16.8-16.7c0-9.2-7.5-16.9-16.8-16.9c-9.1,0-16.7,7.6-16.7,16.9C769.3,422,776.8,429.5,786,429.5z"/>
		<path class="st0" d="M826.3,385c0-0.8,0.7-1.6,1.6-1.6h10c0.8,0,1.6,0.8,1.6,1.6v44.8h20c0.9,0,1.6,0.8,1.6,1.6v9.1
			c0,0.8-0.7,1.6-1.6,1.6h-31.5c-0.9,0-1.6-0.8-1.6-1.6V385z"/>
		<path class="st0" d="M894.7,382.6c16.8,0,30.2,13.5,30.2,30.3S911.5,443,894.7,443s-30.1-13.3-30.1-30.1S877.9,382.6,894.7,382.6z
			 M894.7,429.5c9.2,0,16.8-7.6,16.8-16.7c0-9.2-7.5-16.9-16.8-16.9c-9.1,0-16.7,7.6-16.7,16.9C878,422,885.5,429.5,894.7,429.5z"/>
		<path class="st0" d="M960.9,382.6c7,0,14.8,2.9,20.5,7.9c0.8,0.6,0.8,1.6,0.2,2.3l-6.6,7c-0.7,0.6-1.6,0.6-2.3,0.1
			c-3.2-2.9-6.9-4-11-4c-9.1,0-16.5,7.7-16.5,16.9c0,9.1,7.5,16.7,16.6,16.7c2.4,0,4.9-0.3,7.5-1.3v-4.9H964c-0.9,0-1.6-0.7-1.6-1.5
			v-8.3c0-0.9,0.7-1.6,1.6-1.6h16.9c0.8,0,1.5,0.8,1.5,1.6l0.1,22.6c0,0.4-0.3,1.1-0.7,1.3c0,0-8.6,5.5-20.8,5.5
			c-16.7,0-30.1-13.3-30.1-30S944.3,382.6,960.9,382.6z"/>
		<path class="st0" d="M1004.7,413.9l-18.5-28c-0.7-1.1,0-2.4,1.3-2.4h10.9c0.7,0,1.1,0.4,1.3,0.8l11.7,17.2l11.7-17.2
			c0.3-0.3,0.6-0.8,1.3-0.8h10.9c1.3,0,2,1.3,1.3,2.4l-18.8,27.9v26.8c0,0.8-0.8,1.6-1.6,1.6h-10c-0.9,0-1.6-0.8-1.6-1.6V413.9z"/>
	</g>
</g>
</svg>
