<?xml version="1.0" encoding="utf-8"?>
<!-- Generator: Adobe Illustrator 23.0.1, SVG Export Plug-In . SVG Version: 6.00 Build 0)  -->
<svg version="1.1" id="Layer_1" xmlns="http://www.w3.org/2000/svg" xmlns:xlink="http://www.w3.org/1999/xlink" x="0px" y="0px"
	 viewBox="0 0 770.6 405.6" style="enable-background:new 0 0 770.6 405.6;" xml:space="preserve">
<style type="text/css">
	.st0{fill:#FFFFFF;}
</style>
<g>
	<g>
		<path class="st0" d="M50.8,145.8c0-0.3-0.5-1.5-1.5-3.5c-1-2-1.5-3.3-1.5-3.8c0-0.6-0.5-1.6-1.4-3.1c-1-1.5-1.5-2.6-1.8-3.3
			c-0.7-2.6-1.5-4.8-2.3-6.6c-0.8-1.8-1.4-3.1-1.9-3.8c-0.4-0.7-0.8-1.3-1-1.8c-0.3-0.6-0.4-1.1-0.4-1.7c0-0.5-0.2-1.3-0.7-2.4
			c-0.5-1.1-1.2-2.5-2.1-4.4c-0.9-1.8-1.6-3.3-2.2-4.4c-1.2-2.9-2.5-4.6-3.6-5.1c-2.4-1.2-2-1.9,1.3-2.2c0.4,0,1,0,1.5-0.1
			c4.3-0.1,8.5-0.2,12.8-0.1s6.6,0.4,7,0.7c0.4,0.3,0.4,0.7,0,1.2c-0.4,0.5-0.8,1.1-1.4,1.8c-0.6,0.7-0.8,1.3-0.8,1.8
			c0,0.7,1.1,3.8,3.2,9.3c2.1,5.6,3.6,9.1,4.5,10.8c0.8,1.3,1.2,2.4,1.2,3.2c0,0.7,0.6,2.2,1.8,4.7c1.2,2.5,1.8,4,1.8,4.5
			c0.1,0.5,0.5,1.4,1.2,2.5c0.7,1.2,1,2.1,1,2.6c0,0.5,0.5,2,1.5,4.4c1,2.4,1.4,4.2,1.2,5.6c-0.4,2.6-1.4,5.8-3,9.5
			c-1.6,3.8-2.8,5.7-3.4,5.7c-0.5,0-1.5-1.1-3-3.4c-1.5-2.3-2.2-3.8-2.2-4.4c0-0.7-0.3-1.4-0.8-2.3c-0.7-1.3-1.8-3.6-3.1-6.7
			C51.5,147.9,50.8,146.1,50.8,145.8z M77.2,99.8c1.9-0.4,5-0.6,9.2-0.4c4.2,0.2,6.4,0.5,6.5,1c0.1,0.3,0,0.5-0.2,0.7
			c-0.2,0.1-0.5,0.2-0.9,0.2c-0.7,0-1.7,0.7-3.2,2c-1.5,1.3-2.2,2.3-2.2,3c0,0.2-0.5,1-1.5,2.5s-1.5,2.6-1.5,3.6
			c0,0.6-0.1,1.3-0.4,2.1c-0.3,0.8-0.9,2.3-1.7,4.4c-0.8,2.1-1.7,4.4-2.6,6.8c-2.1,6.1-3.6,10.3-4.6,12.5c-1,2.2-1.7,3.3-2.3,3.3
			c-0.7,0-1.2-0.4-1.5-1.3c-0.3-0.8-0.1-1.7,0.4-2.5c0.6-1,0.9-1.8,0.9-2.6c0-0.4,1.2-3.9,3.6-10.6c2.4-6.7,3.8-10.4,4.1-11.1
			c0.7-1.3,1.2-3.2,1.3-5.6c0.1-1.7,0-2.8-0.3-3.3c-0.3-0.5-1-1.2-2.4-2.2l-3-1.9L77.2,99.8z"/>
		<path class="st0" d="M95.4,101.3c0.4-0.6,3.7-0.8,10.1-0.8c6.4,0.1,9.7,0.4,10.1,1c0.3,0.5,0.4,11.8,0.3,33.7
			c-0.1,22-0.3,33.2-0.6,33.6c-0.3,0.4-3.2,0.6-8.6,0.6c-5.4,0-8.7-0.3-9.8-0.7c-0.8-0.3-1.3-0.6-1.4-0.8c-0.1-0.3,0-0.6,0.3-1
			c0.6-0.7,1.3-1.1,2.2-1.1s1.6-0.3,2.2-1c0.6-0.7,1-10.5,1.3-29.5c0.3-17.6,0.3-27.1-0.1-28.6c-0.1-0.5-0.5-1-1-1.5
			c-1-1.1-2.1-1.7-3.1-1.7c-0.8,0-1.4-0.2-1.8-0.7C95,102.4,95,101.9,95.4,101.3z M133.8,124.7c0.4-0.9,0.8-1.2,1.4-1
			c0.6,0.2,0.9,3.6,0.9,10.3c0,4.2-0.1,6.9-0.2,8.1c-0.1,1.2-0.4,1.8-0.9,1.8c-0.5,0-0.8-0.3-1-0.8c-0.1-0.6-0.3-1.2-0.4-2.1
			c-0.1-0.8-0.4-1.7-0.9-2.5c-0.4-0.8-1.4-1.7-2.9-2.4c-1.5-0.8-3.4-1.3-5.8-1.5c-1.4-0.1-2.1-0.5-2.1-1.2s0.7-0.9,2.2-0.9
			c1.9,0,3.8-0.8,5.7-2.3C131.7,128.6,133,126.8,133.8,124.7z M148.9,152.9c0.4-0.3,1-0.4,2-0.3c0.7,0.1,1.2,0.5,1.4,1.2
			c0.2,0.7,0.3,2.6,0.3,5.6c0.1,4.4,0,7.2-0.6,8.4l-0.7,1.9l-13.7-0.3c-9.1-0.1-14-0.5-14.6-1.1c-1.2-1.1-0.5-1.8,2.1-2.2
			c1.4-0.1,3.4-0.2,6.1-0.2c3.7,0,6.1-0.1,7.1-0.3c1.1-0.2,2.2-0.7,3.4-1.5c1.6-1.2,3.1-2.8,4.5-4.6c1.4-1.8,2.1-3.3,2.1-4.3
			C148.3,153.9,148.5,153.2,148.9,152.9z M125,101.4c0.2-0.3,4.1-0.4,11.7-0.3c7.6,0.1,12.1,0.3,13.7,0.6c1,0.2,1.7,0.9,1.9,2.1
			c0.2,1,0.2,3.6-0.2,7.6s-0.7,6.4-1,7c-0.5,0.8-1.2,0.6-2-0.6c-0.4-0.7-0.7-1.4-0.7-2.3c0-1.2-0.6-2.9-1.9-5
			c-1-1.8-2.6-3.3-4.6-4.4c-2.1-1.1-4.1-1.7-6.2-2c-2.1-0.3-4-0.5-5.8-0.6c-1.8-0.1-3.2-0.3-4.1-0.6
			C124.7,102.7,124.5,102.1,125,101.4z"/>
		<path class="st0" d="M155.4,163c0.1-2.5,0.3-7.8,0.4-16c0.1-8.2,0.2-15.5,0.3-21.9c0.1-6.4,0.3-9.7,0.6-9.7c1.1,0,1.8,1.6,2.2,4.9
			c0.3,3.2,0.5,10.2,0.5,20.7c0,8.9,0.1,14.8,0.2,17.8c0.1,2.9,0.5,4.7,1,5.4c0.7,1,1.4,1.5,2.1,1.5c0.6,0,1.2,0.5,1.8,1.4
			c0.6,0.9,0.7,1.6,0.3,1.9c-0.3,0.3-2,0.4-5.2,0.4h-4.7L155.4,163z M155,103.8v-3.2l6.1,0.3c2.9,0.2,4.8,0.5,5.6,0.8
			c0.8,0.3,1.7,1.1,2.9,2.4l17.2,20.1c2,2.4,3.8,4.4,5.4,6.2c1.6,1.8,3.2,3.5,4.6,5.3c2,2.5,4.7,5.7,8.3,9.7l5.4,6.1v7.8
			c0,6.1-0.7,9.2-2,9.2c-0.5,0-1.1-0.3-1.8-0.9c-1-0.9-1.4-1.6-1.4-2.2c0-0.3-0.3-0.8-1-1.6c-0.7-0.8-1.8-2-3.3-3.8
			c-1.5-1.7-3-3.4-4.3-5.1c-3.1-3.9-7.1-8.5-12-13.9c-4.9-5.4-8.1-8.9-9.5-10.7c-2.6-3-5.4-6.2-8.5-9.7c-3.1-3.4-5.3-5.9-6.7-7.4
			c-1.4-1.5-2.5-3.1-3.5-4.8C155.5,106.8,155,105.2,155,103.8z M202.4,101.6c0.4-0.4,1-0.7,1.9-0.9c0.9-0.1,2.6-0.1,5.1,0
			c4.8,0.2,7.1,0.7,7.1,1.5c0,0.4-0.7,1-2.1,1.8c-0.1,0.1-0.3,0.1-0.6,0.2c-1,0.4-1.6,1-2,1.8c-0.4,0.7-0.7,2.6-0.9,5.7
			c-0.3,3.1-0.4,8.1-0.5,15.1c-0.1,7.9-0.3,12.4-0.7,13.7c-0.7,2.2-1.1,1.8-1.3-1.3c-0.2-2.7-0.3-7.7-0.3-15
			c0-7.6-0.1-12.3-0.3-14.1c-0.2-1.8-0.6-3.1-1.3-4c-0.5-0.7-1.1-1.2-1.7-1.7c-0.6-0.4-1.1-0.7-1.5-0.9c-0.4-0.1-0.8-0.3-1-0.5
			c-0.3-0.2-0.4-0.4-0.4-0.6C201.9,102.4,202,102.1,202.4,101.6z"/>
		<path class="st0" d="M218.9,101.3c0.4-0.4,5.1-0.7,14.1-0.7c9,0,13.7,0.2,14,0.7c0.1,0.1,0,0.4-0.4,0.8c-0.4,0.4-0.9,0.7-1.6,1
			c-2,0.8-3.2,1.6-3.5,2.3c-1,1.5-1.5,6.6-1.5,15.4c-0.1,1.8-0.1,6.6-0.1,14.3c-0.1,13.3-0.1,21.4,0,24.3c0.1,2.9,0.5,4.7,1.1,5.5
			c1,1,2.3,1.7,4,2.3c2.9,1,3,1.6,0.4,1.9c-2,0.2-6,0.3-12,0.3c-9.3,0-13.9-0.3-13.9-1c0-0.3,0.8-0.7,2.3-1.2c1.9-0.6,3.1-1.3,3.5-2
			c0.9-1.4,1.4-6.8,1.7-16.1c0-1.8,0.1-6.3,0.2-13.7l0.4-28.4l-1.8-1.8c-0.5-0.6-1.2-1.1-1.9-1.5c-0.8-0.4-1.5-0.7-2.1-0.8
			c-0.6-0.1-1.2-0.3-1.8-0.4c-0.6-0.2-1-0.3-1.1-0.5C218.7,102,218.7,101.7,218.9,101.3z"/>
		<path class="st0" d="M272.7,100.9c2.8-1,4.8-1.5,6.1-1.6c1.2-0.1,2,0.2,2.3,1c0.2,0.7-0.2,1.5-1.3,2.5c-1.1,1-2.1,1.5-3.1,1.5
			c-0.7,0-2.4,1.5-5.2,4.6c-2.8,3.1-4.2,4.9-4.2,5.6c0,0.6-0.3,1.1-1,1.7c-0.8,0.7-1.8,3.4-2.9,8.1s-1.7,8.5-1.7,11.2
			c0,2.2,0.3,4.7,1,7.5c0.7,2.8,1.5,5.1,2.5,7l1.8,3.5c0.5,1,2.6,3.2,6.3,6.6c3.5,3.4,4.8,5.4,3.9,6.1c-0.4,0.3-1,0.4-2,0.4
			c-1.3,0-3.5-0.6-6.6-1.7c-3.1-1.1-5.5-2.3-7.2-3.4c-1.6-1-3.6-2.7-5.8-5c-2.2-2.3-3.8-4.2-4.6-5.7c-0.7-1.3-1.2-2.8-1.3-4.6
			c-0.1-1.7-0.2-5.8-0.2-12.3c0-6.7,0.1-10.8,0.2-12.4c0.1-1.6,0.6-2.9,1.4-4c3-4.3,6.1-7.7,9.3-10.1
			C263.5,104.9,267.6,102.8,272.7,100.9z M303.8,148c0.7-2.6,1.9-3.8,3.6-3.5c0.7,0.1,1.2,0.5,1.3,1.3c0.1,0.8,0.2,3,0.2,6.6v7.8
			l-4.1,0.4c-2.1,0.2-4.5,0.9-7,2.2c-2.5,1.2-4.5,2.3-6.1,3.2c-1.6,0.9-2.6,1.2-3.1,0.8c-0.7-0.4-1-1-0.8-2c0.2-1,0.8-1.7,1.7-2
			c3.5-1.6,6.5-3.8,9.1-6.4C301.3,153.7,303,150.9,303.8,148z M295.9,101.3c0.7,0,1.3,0.3,1.9,0.8c0.6,0.5,1.5,1,2.6,1.5
			c1.1,0.5,2.6,0.7,4.4,0.7c2.6,0,4.1,0.3,4.3,1c0.1,0.5,0.1,3-0.2,7.4c-0.3,4.5-0.9,6.8-1.9,7c-0.6,0.1-1.3-0.5-2-1.7
			c-0.7-1.2-1.5-2.7-2.3-4.4c-0.8-1.7-2.1-3.5-3.9-5.4c-1.8-1.9-3.9-3.3-6.2-4.2c-1.5-0.6-2.5-1.3-3-2.1c-0.5-0.8-0.4-1.5,0.2-2.1
			c0.2-0.3,1-0.3,2.2-0.1c1.2,0.3,2,0.6,2.2,0.9C294.5,101.1,295.1,101.3,295.9,101.3z"/>
		<path class="st0" d="M311.5,101.3c0.4-0.6,3.7-0.8,10.1-0.8c6.4,0.1,9.7,0.4,10.1,1c0.3,0.5,0.4,11.8,0.3,33.7
			c-0.1,22-0.3,33.2-0.6,33.6c-0.3,0.4-3.2,0.6-8.6,0.6c-5.4,0-8.7-0.3-9.8-0.7c-0.8-0.3-1.3-0.6-1.4-0.8c-0.1-0.3,0-0.6,0.3-1
			c0.6-0.7,1.3-1.1,2.2-1.1c0.9,0,1.6-0.3,2.2-1c0.6-0.7,1-10.5,1.3-29.5c0.3-17.6,0.3-27.1-0.1-28.6c-0.1-0.5-0.5-1-1-1.5
			c-1-1.1-2.1-1.7-3.1-1.7c-0.8,0-1.4-0.2-1.8-0.7C311.2,102.4,311.2,101.9,311.5,101.3z M349.9,124.7c0.4-0.9,0.8-1.2,1.4-1
			c0.6,0.2,0.9,3.6,0.9,10.3c0,4.2-0.1,6.9-0.2,8.1c-0.1,1.2-0.4,1.8-0.9,1.8c-0.5,0-0.8-0.3-1-0.8c-0.1-0.6-0.3-1.2-0.4-2.1
			c-0.1-0.8-0.4-1.7-0.9-2.5c-0.4-0.8-1.4-1.7-2.9-2.4c-1.5-0.8-3.4-1.3-5.8-1.5c-1.4-0.1-2.1-0.5-2.1-1.2s0.7-0.9,2.2-0.9
			c1.9,0,3.8-0.8,5.7-2.3C347.9,128.6,349.2,126.8,349.9,124.7z M365.1,152.9c0.4-0.3,1-0.4,2-0.3c0.7,0.1,1.2,0.5,1.4,1.2
			c0.2,0.7,0.3,2.6,0.3,5.6c0.1,4.4,0,7.2-0.6,8.4l-0.7,1.9l-13.7-0.3c-9.1-0.1-14-0.5-14.6-1.1c-1.2-1.1-0.5-1.8,2.1-2.2
			c1.4-0.1,3.4-0.2,6.1-0.2c3.7,0,6.1-0.1,7.1-0.3c1.1-0.2,2.2-0.7,3.4-1.5c1.6-1.2,3.1-2.8,4.5-4.6c1.4-1.8,2.1-3.3,2.1-4.3
			C364.5,153.9,364.7,153.2,365.1,152.9z M341.1,101.4c0.2-0.3,4.1-0.4,11.7-0.3s12.1,0.3,13.7,0.6c1,0.2,1.7,0.9,1.9,2.1
			c0.2,1,0.2,3.6-0.2,7.6c-0.3,4-0.7,6.4-1,7c-0.5,0.8-1.2,0.6-2-0.6c-0.4-0.7-0.7-1.4-0.7-2.3c0-1.2-0.6-2.9-1.9-5
			c-1-1.8-2.6-3.3-4.6-4.4c-2.1-1.1-4.1-1.7-6.2-2c-2.1-0.3-4-0.5-5.8-0.6c-1.8-0.1-3.2-0.3-4.1-0.6
			C340.9,102.7,340.7,102.1,341.1,101.4z"/>
		<path class="st0" d="M28.8,195.1c0.3-0.5,3.6-0.7,9.9-0.6l9.4,0.2l0.4,4.1c0.3,2.7,0.5,13.2,0.6,31.6l0.1,27.6l2,1.4
			c1.8,1.3,1.9,2.2,0.3,2.7c-1.4,0.3-4.8,0.4-10.2,0.4c-7.1,0-10.7-0.2-11-0.7c-0.3-0.4,0.3-1.2,1.7-2.3l2.2-1.5l0.1-28.1
			c0.1-17.2-0.2-27.1-0.9-29.7c-0.4-1.7-1.3-2.8-2.8-3.4c-0.1,0-0.3,0-0.4-0.1C28.9,196.1,28.5,195.6,28.8,195.1z M54.1,195
			c0.1-0.2,1.5-0.4,4.2-0.5s5.7,0,9,0.3c3.4,0.3,5.9,0.9,7.5,1.8c4.6,2.4,7.3,6.1,8.2,11.3s-0.3,9.8-3.6,14
			c-2.1,2.6-5.2,4.4-9.3,5.6c-4.1,1.1-8.4,1.3-13,0.5c-1.8-0.3-2.8-0.6-2.8-0.9c0-0.3,1.7-0.9,5-1.8c2.1-0.4,3.6-0.9,4.6-1.5
			c1-0.6,2.1-1.4,3.3-2.6c1.3-1.4,2.1-2.5,2.4-3.3c0.3-0.8,0.4-2.6,0.4-5.3c0-5.4-0.8-9.3-2.3-11.5c-1.5-2.2-4.4-3.6-8.5-4.1
			c-1.3-0.1-2.3-0.3-3-0.4c-0.7-0.1-1.2-0.2-1.7-0.4c-0.4-0.1-0.6-0.3-0.6-0.5C53.9,195.5,54,195.3,54.1,195z"/>
		<path class="st0" d="M85.9,195.7c0.4-0.3,3.5-0.4,9.3-0.4c5.8,0,9,0.3,9.5,1c0.5,0.7,0.7,10.7,0.7,30.1c0,18.2,0.3,28.6,0.9,31.1
			c0.4,1.3,1.1,2.3,2.2,2.9c1,0.6,1.5,1.3,1.5,2.2c0,1-1,1.7-3.1,2c-2.1,0.3-5.8,0.3-11.2,0.1c-6.4-0.3-9.7-0.9-9.8-1.9
			c-0.1-0.5,0.6-1.3,1.9-2.4l2.5-2.2l0.6-9.5c0.3-4.9,0.4-12.3,0.3-22.2c-0.1-9.9-0.4-16.6-0.8-20c-0.4-2.7-1.2-4.8-2.6-6.2
			C85.5,198.1,84.9,196.6,85.9,195.7z M112.4,195.6c0.3-0.7,1.4-1,3.2-0.8l6.7,0.8c2.6,0.3,5,0.9,7.2,1.9c2.1,1,3.6,2.1,4.5,3.4
			c2.9,4.1,4.2,7.9,3.9,11.5c-0.3,2.5-1.1,4.7-2.4,6.5c-1.3,1.8-2.6,3.1-4,3.8c-1.4,0.7-2.6,1.4-3.7,2.1s-1.7,1.3-1.7,1.8
			c0,0.7,1.4,1.9,4.2,3.9c3.1,2.2,5.3,4.4,6.5,6.5c1.2,2.1,2.1,5.1,2.6,8.9c0.7,4.9,1.3,8.3,2,10.2c0.7,1.8,1.8,3.3,3.4,4.4
			c1.8,1.3,2.8,2.3,2.8,3.2c0,0.7-0.2,1-0.6,1.2c-0.4,0.1-1.4,0.1-3-0.2c-4.3-0.5-7.2-1.1-8.8-1.7c-1.6-0.6-3.1-1.9-4.7-3.7
			c-1.8-2.1-3.1-4.3-4-6.8c-0.9-2.5-1.6-5.9-2.1-10.2c-0.4-3.5-1.2-6.4-2.2-8.5c-1-2.1-2.3-3.4-3.9-3.8c-1.9-0.5-3.6-1.1-5.2-1.8
			c-1.5-0.7-2.3-1.3-2.3-1.7c0-0.7,1.4-1.3,4.3-1.9c3.9-0.7,6.7-2.1,8.6-4.1c1.8-2,2.7-4.8,2.7-8.2c0-4.3-1-7.7-3-10.2
			c-2-2.5-4.7-3.8-8.1-3.8C112.8,198.1,111.7,197.2,112.4,195.6z"/>
		<path class="st0" d="M152.9,215c0-0.5,0.5-1.3,1.5-2.4c1-1.1,1.5-1.8,1.5-2.1c0-0.5,1.4-2.2,4.4-5.1c2.9-2.9,4.9-4.7,6.1-5.4
			c6.5-3.8,10.6-5.5,12-5.3c1.1,0.1,1.7,0.4,1.8,1.1c0.1,0.7-0.4,1.2-1.3,1.5c-1.2,0.4-2.9,1.9-5.1,4.3c-2.2,2.4-3.8,4.5-4.6,6.2
			c-1.9,3.9-3.1,6.7-3.4,8.4c-0.4,1.7-0.6,5.2-0.8,10.4c-0.2,6.8-0.1,10.8,0.4,11.9c1.6,3.5,2.4,5.7,2.4,6.7c0,1,0.9,2.8,2.8,5.3
			c1.8,2.5,3.8,4.5,5.7,6c2.1,1.7,3.4,2.8,3.7,3.4c0.3,0.6,0.1,1.2-0.6,1.8c-0.4,0.4-1.3,0.3-2.6-0.1c-1.3-0.4-3.8-1.5-7.5-3.3
			c-2.6-1.2-5.9-4-10.1-8.4c-4.2-4.4-6.2-7.5-6.2-9.1c0-0.7-0.5-2.1-1.4-4.1c-1-2-1.5-4.9-1.5-8.8c0-3.9,0.5-6.9,1.5-8.9
			C152.4,216.9,152.9,215.6,152.9,215z M206.3,229.4c0-4.3-0.3-8.1-0.9-11.3c-0.6-3.2-1.3-5.5-2-6.8c-0.7-1.4-1.4-2.5-2-3.5
			c-0.6-1-0.9-1.7-0.9-2.1c0-0.5-1.3-2-3.9-4.5c-2.6-2.5-4.2-3.8-4.7-3.8c-0.6,0-1-0.3-1.4-0.8c-0.3-0.5-0.4-1-0.1-1.4
			c0.3-0.5,0.8-0.8,1.6-0.8c0.8,0,1.7,0.1,2.7,0.4c1,0.3,2,0.6,3,1c1,0.4,2,0.8,3,1.2c1,0.4,1.7,0.6,2.2,0.7
			c1.5,0.4,3.9,2.3,7.4,5.8c3.5,3.5,6,7.1,7.7,10.6c1.7,3.5,2.7,7.5,3,11.9c0.1,2.6,0.1,4.6,0,6c-0.1,1.4-0.6,3.3-1.3,5.6
			c-1,3.1-1.9,5.4-2.9,6.8c-1,1.5-1.6,2.5-1.8,3.2c-0.4,1.2-1.8,2.9-4.2,5.3c-2.5,2.4-4.7,4-6.6,4.9c-6.8,3.3-10.7,4.8-11.9,4.4
			c-1.6-0.5-1.6-1.5,0-3.1c0.6-0.6,1.4-1.3,2.5-2.2c2.4-1.8,4.4-4.1,6-6.8c1.6-2.7,2.7-5.1,3.5-7.2c0.7-2.1,1.2-3.3,1.5-3.6
			C206.1,238.8,206.3,235.5,206.3,229.4z"/>
		<path class="st0" d="M226,241.3c1.3-1.2,2.3-1.9,2.9-2.2c0.6-0.3,1.7-0.3,3.4-0.1c4.5,0.4,6.7,2.9,6.7,7.4c0,1.3-0.2,2.3-0.6,3
			c-0.4,0.7-1.3,1.7-2.8,3c-1.8,1.6-2.6,2.6-2.6,3.1c0,0.4,0.9,1.1,2.6,2.1c1,0.4,1.5,1.3,1.5,2.5c0,1.2-0.4,1.9-1.4,2.1
			c-1,0.1-2.5-0.3-4.7-1.5c-2.2-1.1-3.5-2.2-4-3.1c-0.5-1-1.2-1.8-1.9-2.6c-0.8-0.8-1.3-1.6-1.6-2.4c-0.3-0.8-0.4-2.3-0.4-4.4
			c0-2.1,0.1-3.5,0.4-4.2C223.9,243.5,224.7,242.5,226,241.3z M251.9,194.4c0.6-0.3,2.4-0.4,5.5-0.2c3.1,0.1,6,0.2,8.8,0.2
			c5.1,0,7.6,0.3,7.6,1c0,0.4-0.8,0.9-2.5,1.5c-1.7,0.7-2.8,1.7-3.3,3c-0.5,1.3-0.8,8.7-0.8,22.2c0,12.6-0.3,20.8-0.9,24.8
			c-0.6,3.9-2.1,7.1-4.4,9.4c-4.4,4.5-9.3,7-14.8,7.4c-5.4,0.4-8.1-0.4-8.1-2.6c0-1,0.4-1.7,1.2-2.2c0.8-0.5,2.1-1,4-1.3
			c2.2-0.4,4.3-1.5,6.2-3.3l2.8-2.8l0.1-22.2c0.1-17.9-0.1-27.8-0.6-29.6c-0.2-0.7-0.7-1.4-1.3-1.9c-1-0.8-2-1.3-2.9-1.4
			c-1.8-0.3-2-0.7-0.8-1.3C248.7,194.9,250,194.6,251.9,194.4z"/>
		<path class="st0" d="M276.2,195.9c0.4-0.6,3.7-0.8,10.1-0.8c6.4,0.1,9.7,0.4,10.1,1c0.3,0.5,0.4,11.8,0.3,33.7
			c-0.1,22-0.3,33.2-0.6,33.6c-0.3,0.4-3.2,0.6-8.6,0.6c-5.4,0-8.7-0.3-9.8-0.7c-0.8-0.3-1.3-0.6-1.4-0.8c-0.1-0.3,0-0.6,0.3-1
			c0.6-0.7,1.3-1.1,2.2-1.1c0.9,0,1.6-0.3,2.2-1s1-10.5,1.3-29.5c0.3-17.6,0.3-27.1-0.1-28.6c-0.1-0.5-0.5-1-1-1.5
			c-1-1.1-2.1-1.7-3.1-1.7c-0.8,0-1.4-0.2-1.8-0.7C275.9,197,275.9,196.5,276.2,195.9z M314.6,219.3c0.4-0.9,0.8-1.2,1.4-1
			c0.6,0.2,0.9,3.6,0.9,10.3c0,4.2-0.1,6.9-0.2,8.1c-0.1,1.2-0.4,1.8-0.9,1.8c-0.5,0-0.8-0.3-1-0.8c-0.1-0.6-0.3-1.2-0.4-2.1
			c-0.1-0.8-0.4-1.7-0.9-2.5c-0.4-0.8-1.4-1.7-2.9-2.4c-1.5-0.8-3.4-1.3-5.8-1.5c-1.4-0.1-2.1-0.5-2.1-1.2c0-0.6,0.7-0.9,2.2-0.9
			c1.9,0,3.8-0.8,5.7-2.3C312.6,223.2,313.9,221.4,314.6,219.3z M329.8,247.5c0.4-0.3,1-0.4,2-0.3c0.7,0.1,1.2,0.5,1.4,1.2
			c0.2,0.7,0.3,2.6,0.3,5.6c0.1,4.4,0,7.2-0.6,8.4l-0.7,1.9l-13.7-0.3c-9.1-0.1-14-0.5-14.6-1.1c-1.2-1.1-0.5-1.8,2.1-2.2
			c1.4-0.1,3.4-0.2,6.1-0.2c3.7,0,6.1-0.1,7.1-0.3c1.1-0.2,2.2-0.7,3.4-1.5c1.6-1.2,3.1-2.8,4.5-4.6c1.4-1.8,2.1-3.3,2.1-4.3
			C329.2,248.5,329.4,247.8,329.8,247.5z M305.8,196c0.2-0.3,4.1-0.4,11.7-0.3c7.6,0.1,12.1,0.3,13.7,0.6c1,0.2,1.7,0.9,1.9,2.1
			c0.2,1,0.2,3.6-0.2,7.6s-0.7,6.4-1,7c-0.5,0.8-1.2,0.6-2-0.6c-0.4-0.7-0.7-1.4-0.7-2.3c0-1.2-0.6-2.9-1.9-5
			c-1-1.8-2.6-3.3-4.6-4.4c-2.1-1.1-4.1-1.7-6.2-2c-2.1-0.3-4-0.5-5.8-0.6c-1.8-0.1-3.2-0.3-4.1-0.6
			C305.6,197.2,305.4,196.7,305.8,196z"/>
		<path class="st0" d="M359,195.4c2.8-1,4.8-1.5,6.1-1.6c1.2-0.1,2,0.2,2.3,1c0.2,0.7-0.2,1.5-1.3,2.5c-1.1,1-2.1,1.5-3.1,1.5
			c-0.7,0-2.4,1.5-5.2,4.6s-4.2,4.9-4.2,5.6c0,0.6-0.3,1.1-1,1.7c-0.8,0.7-1.8,3.4-2.9,8.1c-1.1,4.7-1.7,8.5-1.7,11.2
			c0,2.2,0.3,4.7,1,7.5c0.7,2.8,1.5,5.1,2.5,7l1.8,3.5c0.5,1,2.6,3.2,6.3,6.6c3.5,3.4,4.8,5.4,3.9,6.1c-0.4,0.3-1,0.4-2,0.4
			c-1.3,0-3.5-0.6-6.6-1.7c-3.1-1.1-5.5-2.3-7.2-3.4c-1.6-1-3.6-2.7-5.8-5c-2.2-2.3-3.8-4.2-4.6-5.7c-0.7-1.3-1.2-2.8-1.3-4.6
			c-0.1-1.7-0.2-5.8-0.2-12.3c0-6.7,0.1-10.8,0.2-12.4c0.1-1.6,0.6-2.9,1.4-4c3-4.3,6.1-7.7,9.3-10.1
			C349.8,199.5,353.9,197.4,359,195.4z M390.1,242.6c0.7-2.6,1.9-3.8,3.6-3.5c0.7,0.1,1.2,0.5,1.3,1.3c0.1,0.8,0.2,3,0.2,6.6v7.8
			l-4.1,0.4c-2.1,0.2-4.5,0.9-7,2.2c-2.5,1.2-4.5,2.3-6.1,3.2c-1.6,0.9-2.6,1.2-3.1,0.8c-0.7-0.4-1-1-0.8-2c0.2-1,0.8-1.7,1.7-2
			c3.5-1.6,6.5-3.8,9.1-6.4C387.6,248.3,389.3,245.5,390.1,242.6z M382.2,195.9c0.7,0,1.3,0.3,1.9,0.8c0.6,0.5,1.5,1,2.6,1.5
			c1.1,0.5,2.6,0.7,4.4,0.7c2.6,0,4.1,0.3,4.3,1c0.1,0.5,0.1,3-0.2,7.4c-0.3,4.5-0.9,6.8-1.9,7c-0.6,0.1-1.3-0.5-2-1.7
			c-0.7-1.2-1.5-2.7-2.3-4.4c-0.8-1.7-2.1-3.5-3.9-5.4c-1.8-1.9-3.9-3.3-6.2-4.2c-1.5-0.6-2.5-1.3-3-2.1c-0.5-0.8-0.4-1.5,0.2-2.1
			c0.2-0.3,1-0.3,2.2-0.1c1.2,0.3,2,0.6,2.2,0.9C380.8,195.7,381.4,195.9,382.2,195.9z"/>
		<path class="st0" d="M405.3,195.9c0.9-0.1,1.7-0.1,2.5-0.2c0.8,0,1.5-0.1,2-0.1c0.5,0,1-0.1,1.5-0.1c0.5,0,0.8-0.1,1-0.1
			c0.2,0,0.5,0,0.7,0c0.3,0,0.4,0,0.5,0c0.1,0,0.3,0,0.7,0.2c0.4,0.2,0.7,0.4,0.8,0.4c0.7,0.3,1,0.6,1.1,0.9
			c0.1,0.3-0.1,0.6-0.5,0.8c-0.4,0.2-1,0.3-1.8,0.3c-1.3,0-3.1,0.6-5.5,1.7c-1.7,0.7-3.1,1.7-4.3,3c-1.2,1.3-2.5,3.3-3.9,6.1
			c-1.4,2.8-2.2,2.2-2.4-1.7c-0.1-1-0.1-2.3-0.1-3.9v-7L405.3,195.9z M422.2,195.7c0.2-0.4,2.2-0.5,5.8-0.3l5.5,0.2l-0.1,62.2
			l1.7,1.5c0.7,0.6,1.3,1.1,1.9,1.4c0.6,0.4,1,0.6,1.4,0.7c0.3,0.1,0.6,0.2,0.8,0.4c0.2,0.1,0.3,0.4,0.3,0.7c0,0.5-4.3,0.8-13,0.8
			c-8.6,0-13-0.2-13-0.6c0-0.4,0.2-0.6,0.7-0.8c0.5-0.2,1-0.4,1.7-0.7c0.7-0.3,1.3-0.7,2-1.3c0.7-0.6,1.3-1.6,1.8-2.9
			c0.5-1.4,0.8-3.1,0.9-5.1c0.1-3.2,0.2-9.6,0.4-19.3c0.2-9.7,0.4-18.2,0.6-25.6C421.9,199.7,422.1,195.9,422.2,195.7z M439.8,196
			c0.3-0.4,3.3-0.6,9.2-0.6l8.7,0.1l0.2,5.7c0.1,4.6-0.3,7.4-1.4,8.4c-0.5,0.5-1,0-1.4-1.4c-0.1-0.4-0.3-0.7-0.3-1.1
			c-0.4-1.6-1.9-3.5-4.5-5.7c-2.6-2.2-4.7-3.3-6.2-3.3c-0.5,0-1.1-0.1-1.9-0.4c-0.7-0.3-1.3-0.6-1.8-0.9
			C439.8,196.5,439.6,196.2,439.8,196z"/>
		<path class="st0" d="M45.7,294.5c2.2-1.2,4.3-2.3,6.4-3.1c2.1-0.8,3.8-1.4,5.1-1.8c1.3-0.3,2.5-0.6,3.5-0.7c1-0.1,1.8-0.2,2.2-0.2
			c0.4,0,0.7,0.1,0.8,0.1c0.4,0.3,0.6,0.6,0.6,1c0,0.4-0.3,0.8-0.8,1.3c-0.5,0.5-1.2,0.9-2,1.4c-3.1,1.4-6.4,4.4-9.8,9
			c-3.5,4.6-5.2,8.2-5.2,10.8c0,1.2-0.3,2.5-0.8,3.9c-0.6,1.5-0.8,4.1-0.8,7.8c0.1,3.6,0.4,6.8,1.1,9.4c0.9,3.4,2.4,6.6,4.4,9.7
			c2.1,3.1,4.3,5.4,6.7,7.1c2,1.3,3.3,2.4,3.9,3.5c0.6,1.1,0.4,1.9-0.4,2.4c-0.4,0.3-2.2,0.1-5.2-0.7c-3.1-0.8-5.1-1.5-6.2-2l-3-1.7
			c-6.5-3.5-11.7-9.2-15.3-17.3c-0.9-2-1.5-3.6-1.7-5c-0.3-1.3-0.4-3.3-0.4-6c0-3.1,0.3-5.8,1-8c0.7-2.2,2.2-5.3,4.5-9.2
			c0.7-1.2,2.5-3.2,5.4-6.2C42.6,297,44.6,295.2,45.7,294.5z M71,354.6c0-0.8,0.3-1.5,0.9-2c0.6-0.5,1.4-1,2.5-1.5
			c1.1-0.5,2.2-1.1,3.4-1.9c1.2-0.7,2.6-2,4.1-3.8s2.9-3.9,4.2-6.4c1.2-2.3,2-3.8,2.6-4.5c0.6-0.7,1.2-1,1.8-0.9
			c0.7,0.1,1.2,0.5,1.3,1.3c0.1,0.8,0.2,3.2,0.2,7.1v8.2l-3.1-0.3c-1.5-0.1-2.8,0.1-4.1,0.6c-1.3,0.4-4,1.8-8.4,4.1
			c-1.2,0.7-2.1,1.1-2.8,1.4c-0.7,0.3-1.3,0.4-1.7,0.4c-0.4,0-0.7-0.1-0.8-0.4C71.1,355.6,71,355.2,71,354.6z M72.8,289.8
			c0.9-1.5,5-0.3,12.4,3.6c0.7,0.4,2,0.4,3.9,0c1.8-0.4,2.8-0.1,3.1,0.7c0.3,0.8,0.3,3.5-0.1,8.1c-0.3,3-0.6,5-0.8,5.9
			c-0.2,0.9-0.6,1.5-1.2,1.6c-0.8,0.1-1.4-0.3-1.7-1.2c-1-2.9-2.2-5.5-3.8-7.7c-1.5-2.2-3-3.8-4.5-4.9c-1.4-1.1-2.8-2-4.1-2.7
			c-1.3-0.7-2.3-1.3-2.9-1.8C72.5,290.9,72.4,290.4,72.8,289.8z"/>
		<path class="st0" d="M94.7,290.5c0.4-0.6,3.7-0.8,10.1-0.8c6.4,0.1,9.7,0.4,10.1,1c0.3,0.5,0.4,11.8,0.3,33.7
			c-0.1,22-0.3,33.2-0.6,33.6c-0.3,0.4-3.2,0.6-8.6,0.6c-5.4,0-8.7-0.3-9.8-0.7c-0.8-0.3-1.3-0.6-1.4-0.8c-0.1-0.3,0-0.6,0.3-1
			c0.6-0.7,1.3-1.1,2.2-1.1c0.9,0,1.6-0.3,2.2-1c0.6-0.7,1-10.5,1.3-29.5c0.3-17.6,0.3-27.1-0.1-28.6c-0.1-0.5-0.5-1-1-1.5
			c-1-1.1-2.1-1.7-3.1-1.7c-0.8,0-1.4-0.2-1.8-0.7C94.4,291.6,94.3,291.1,94.7,290.5z M133.1,313.9c0.4-0.9,0.8-1.2,1.4-1
			c0.6,0.2,0.9,3.6,0.9,10.3c0,4.2-0.1,6.9-0.2,8.1c-0.1,1.2-0.4,1.8-0.9,1.8c-0.5,0-0.8-0.3-1-0.8c-0.1-0.6-0.3-1.2-0.4-2.1
			c-0.1-0.8-0.4-1.7-0.9-2.5c-0.4-0.8-1.4-1.7-2.9-2.4c-1.5-0.8-3.4-1.3-5.8-1.5c-1.4-0.1-2.1-0.5-2.1-1.2s0.7-0.9,2.2-0.9
			c1.9,0,3.8-0.8,5.7-2.3C131.1,317.8,132.4,316,133.1,313.9z M148.2,342.1c0.4-0.3,1-0.4,2-0.3c0.7,0.1,1.2,0.5,1.4,1.2
			c0.2,0.7,0.3,2.6,0.3,5.6c0.1,4.4,0,7.2-0.6,8.4l-0.7,1.9l-13.7-0.3c-9.1-0.1-14-0.5-14.6-1.1c-1.2-1.1-0.5-1.8,2.1-2.2
			c1.4-0.1,3.4-0.2,6.1-0.2c3.7,0,6.1-0.1,7.1-0.3c1.1-0.2,2.2-0.7,3.4-1.5c1.6-1.2,3.1-2.8,4.5-4.6c1.4-1.8,2.1-3.3,2.1-4.3
			C147.7,343.1,147.9,342.4,148.2,342.1z M124.3,290.6c0.2-0.3,4.1-0.4,11.7-0.3c7.6,0.1,12.1,0.3,13.7,0.6c1,0.2,1.7,0.9,1.9,2.1
			c0.2,1,0.2,3.6-0.2,7.6s-0.7,6.4-1,7c-0.5,0.8-1.2,0.6-2-0.6c-0.4-0.7-0.7-1.4-0.7-2.3c0-1.2-0.6-2.9-1.9-5
			c-1-1.8-2.6-3.3-4.6-4.4c-2.1-1.1-4.1-1.7-6.2-2c-2.1-0.3-4-0.5-5.8-0.6c-1.8-0.1-3.2-0.3-4.1-0.6
			C124.1,291.8,123.8,291.3,124.3,290.6z"/>
		<path class="st0" d="M154.7,352.2c0.1-2.5,0.3-7.8,0.4-16c0.1-8.2,0.2-15.5,0.3-21.9c0.1-6.4,0.3-9.7,0.6-9.7
			c1.1,0,1.8,1.6,2.2,4.9c0.3,3.2,0.5,10.2,0.5,20.7c0,8.9,0.1,14.8,0.2,17.8c0.1,2.9,0.5,4.7,1,5.4c0.7,1,1.4,1.5,2.1,1.5
			c0.6,0,1.2,0.5,1.8,1.4c0.6,0.9,0.7,1.6,0.3,1.9c-0.3,0.3-2,0.4-5.2,0.4h-4.7L154.7,352.2z M154.3,293v-3.2l6.1,0.3
			c2.9,0.2,4.8,0.5,5.6,0.8c0.8,0.3,1.7,1.1,2.9,2.4l17.2,20.1c2,2.4,3.8,4.4,5.4,6.2c1.6,1.8,3.2,3.5,4.6,5.3
			c2,2.5,4.7,5.7,8.3,9.7l5.4,6.1v7.8c0,6.1-0.7,9.2-2,9.2c-0.5,0-1.1-0.3-1.8-0.9c-1-0.9-1.4-1.6-1.4-2.2c0-0.3-0.3-0.8-1-1.6
			s-1.8-2-3.3-3.8c-1.5-1.7-3-3.4-4.3-5.1c-3.1-3.9-7.1-8.5-12-13.9c-4.9-5.4-8.1-8.9-9.5-10.7c-2.6-3-5.4-6.2-8.5-9.7
			c-3.1-3.4-5.3-5.9-6.7-7.4c-1.4-1.5-2.5-3.1-3.5-4.8C154.8,295.9,154.3,294.4,154.3,293z M201.8,290.8c0.4-0.4,1-0.7,1.9-0.9
			c0.9-0.1,2.6-0.1,5.1,0c4.8,0.2,7.1,0.7,7.1,1.5c0,0.4-0.7,1-2.1,1.8c-0.1,0.1-0.3,0.1-0.6,0.2c-1,0.4-1.6,1-2,1.8
			c-0.4,0.7-0.7,2.6-0.9,5.7c-0.3,3.1-0.4,8.1-0.5,15.1c-0.1,7.9-0.3,12.4-0.7,13.7c-0.7,2.2-1.1,1.8-1.3-1.3
			c-0.2-2.7-0.3-7.7-0.3-15c0-7.6-0.1-12.3-0.3-14.1c-0.2-1.8-0.6-3.1-1.3-4c-0.5-0.7-1.1-1.2-1.7-1.7c-0.6-0.4-1.1-0.7-1.5-0.9
			c-0.4-0.1-0.8-0.3-1-0.5c-0.3-0.2-0.4-0.4-0.4-0.6C201.2,291.6,201.4,291.2,201.8,290.8z"/>
		<path class="st0" d="M225.8,290.5c0.9-0.1,1.7-0.1,2.5-0.2c0.8,0,1.5-0.1,2-0.1c0.5,0,1-0.1,1.5-0.1c0.5,0,0.8-0.1,1-0.1
			c0.2,0,0.5,0,0.7,0c0.3,0,0.4,0,0.5,0c0.1,0,0.3,0,0.7,0.2c0.4,0.2,0.7,0.4,0.8,0.4c0.7,0.3,1,0.6,1.1,0.9
			c0.1,0.3-0.1,0.6-0.5,0.8c-0.4,0.2-1,0.3-1.8,0.3c-1.3,0-3.1,0.6-5.5,1.7c-1.7,0.7-3.1,1.7-4.3,3c-1.2,1.3-2.5,3.3-3.9,6.1
			s-2.2,2.2-2.4-1.7c-0.1-1-0.1-2.3-0.1-3.9v-7L225.8,290.5z M242.7,290.2c0.2-0.4,2.2-0.5,5.8-0.3l5.5,0.2l-0.1,62.2l1.7,1.5
			c0.7,0.6,1.3,1.1,1.9,1.4c0.6,0.4,1,0.6,1.4,0.7s0.6,0.2,0.8,0.4c0.2,0.1,0.3,0.4,0.3,0.7c0,0.5-4.3,0.8-13,0.8
			c-8.6,0-13-0.2-13-0.6s0.2-0.6,0.7-0.8c0.5-0.2,1-0.4,1.7-0.7c0.7-0.3,1.3-0.7,2-1.3c0.7-0.6,1.3-1.6,1.8-2.9
			c0.5-1.4,0.8-3.1,0.9-5.1c0.1-3.2,0.2-9.6,0.4-19.3c0.2-9.7,0.4-18.2,0.6-25.6S242.5,290.5,242.7,290.2z M260.2,290.6
			c0.3-0.4,3.3-0.6,9.2-0.6l8.7,0.1l0.2,5.7c0.1,4.6-0.3,7.4-1.4,8.4c-0.5,0.5-1,0-1.4-1.4c-0.1-0.4-0.3-0.7-0.3-1.1
			c-0.4-1.6-1.9-3.5-4.5-5.7c-2.6-2.2-4.7-3.3-6.2-3.3c-0.5,0-1.1-0.1-1.9-0.4c-0.7-0.3-1.3-0.6-1.8-0.9
			C260.3,291.1,260.1,290.8,260.2,290.6z"/>
		<path class="st0" d="M280.8,290.5c0.4-0.6,3.7-0.8,10.1-0.8c6.4,0.1,9.7,0.4,10.1,1c0.3,0.5,0.4,11.8,0.3,33.7
			c-0.1,22-0.3,33.2-0.6,33.6c-0.3,0.4-3.2,0.6-8.6,0.6c-5.4,0-8.7-0.3-9.8-0.7c-0.8-0.3-1.3-0.6-1.4-0.8c-0.1-0.3,0-0.6,0.3-1
			c0.6-0.7,1.3-1.1,2.2-1.1c0.9,0,1.6-0.3,2.2-1c0.6-0.7,1-10.5,1.3-29.5c0.3-17.6,0.3-27.1-0.1-28.6c-0.1-0.5-0.5-1-1-1.5
			c-1-1.1-2.1-1.7-3.1-1.7c-0.8,0-1.4-0.2-1.8-0.7C280.4,291.6,280.4,291.1,280.8,290.5z M319.2,313.9c0.4-0.9,0.8-1.2,1.4-1
			c0.6,0.2,0.9,3.6,0.9,10.3c0,4.2-0.1,6.9-0.2,8.1s-0.4,1.8-0.9,1.8c-0.5,0-0.8-0.3-1-0.8c-0.1-0.6-0.3-1.2-0.4-2.1
			c-0.1-0.8-0.4-1.7-0.9-2.5c-0.4-0.8-1.4-1.7-2.9-2.4c-1.5-0.8-3.4-1.3-5.8-1.5c-1.4-0.1-2.1-0.5-2.1-1.2s0.7-0.9,2.2-0.9
			c1.9,0,3.8-0.8,5.7-2.3C317.1,317.8,318.4,316,319.2,313.9z M334.3,342.1c0.4-0.3,1-0.4,2-0.3c0.7,0.1,1.2,0.5,1.4,1.2
			c0.2,0.7,0.3,2.6,0.3,5.6c0.1,4.4,0,7.2-0.6,8.4l-0.7,1.9l-13.7-0.3c-9.1-0.1-14-0.5-14.6-1.1c-1.2-1.1-0.5-1.8,2.1-2.2
			c1.4-0.1,3.4-0.2,6.1-0.2c3.7,0,6.1-0.1,7.1-0.3c1.1-0.2,2.2-0.7,3.4-1.5c1.6-1.2,3.1-2.8,4.5-4.6c1.4-1.8,2.1-3.3,2.1-4.3
			C333.7,343.1,333.9,342.4,334.3,342.1z M310.3,290.6c0.2-0.3,4.1-0.4,11.7-0.3c7.6,0.1,12.1,0.3,13.7,0.6c1,0.2,1.7,0.9,1.9,2.1
			c0.2,1,0.2,3.6-0.2,7.6c-0.3,4-0.7,6.4-1,7c-0.5,0.8-1.2,0.6-2-0.6c-0.4-0.7-0.7-1.4-0.7-2.3c0-1.2-0.6-2.9-1.9-5
			c-1-1.8-2.6-3.3-4.6-4.4c-2.1-1.1-4.1-1.7-6.2-2c-2.1-0.3-4-0.5-5.8-0.6c-1.8-0.1-3.2-0.3-4.1-0.6
			C310.1,291.8,309.9,291.3,310.3,290.6z"/>
		<path class="st0" d="M340.7,290.2c0.4-0.3,3.5-0.4,9.3-0.4c5.8,0,9,0.3,9.5,1c0.5,0.7,0.7,10.7,0.7,30.1c0,18.2,0.3,28.6,0.9,31.1
			c0.4,1.3,1.1,2.3,2.2,2.9c1,0.6,1.5,1.3,1.5,2.2c0,1-1,1.7-3.1,2c-2.1,0.3-5.8,0.3-11.2,0.1c-6.4-0.3-9.7-0.9-9.8-1.9
			c-0.1-0.5,0.6-1.3,1.9-2.4l2.5-2.2l0.6-9.5c0.3-4.9,0.4-12.3,0.3-22.2c-0.1-9.9-0.4-16.6-0.8-20c-0.4-2.7-1.2-4.8-2.6-6.2
			C340.3,292.7,339.7,291.2,340.7,290.2z M367.2,290.1c0.3-0.7,1.4-1,3.2-0.8l6.7,0.8c2.6,0.3,5,0.9,7.2,1.9c2.1,1,3.6,2.1,4.5,3.4
			c2.9,4.1,4.2,7.9,3.9,11.5c-0.3,2.5-1.1,4.7-2.4,6.5c-1.3,1.8-2.6,3.1-4,3.8c-1.4,0.7-2.6,1.4-3.7,2.1s-1.7,1.3-1.7,1.8
			c0,0.7,1.4,1.9,4.2,3.9c3.1,2.2,5.3,4.4,6.5,6.5c1.2,2.1,2.1,5.1,2.6,8.9c0.7,4.9,1.3,8.3,2,10.2c0.7,1.8,1.8,3.3,3.4,4.4
			c1.8,1.3,2.8,2.3,2.8,3.2c0,0.7-0.2,1-0.6,1.2c-0.4,0.1-1.4,0.1-3-0.2c-4.3-0.5-7.2-1.1-8.8-1.7c-1.6-0.6-3.1-1.9-4.7-3.7
			c-1.8-2.1-3.1-4.3-4-6.8c-0.9-2.5-1.6-5.9-2.1-10.2c-0.4-3.5-1.2-6.4-2.2-8.5c-1-2.1-2.3-3.4-3.9-3.8c-1.9-0.5-3.6-1.1-5.2-1.8
			c-1.5-0.7-2.3-1.3-2.3-1.7c0-0.7,1.4-1.3,4.3-1.9c3.9-0.7,6.7-2.1,8.6-4.1c1.8-2,2.7-4.8,2.7-8.2c0-4.3-1-7.7-3-10.2
			c-2-2.5-4.7-3.8-8.1-3.8C367.6,292.7,366.5,291.8,367.2,290.1z"/>
	</g>
	<g>
		<g>
			<rect x="596.4" y="236.8" class="st0" width="58.1" height="114.4"/>
			<path class="st0" d="M597.9,171.6v63.8h15.8v-63.8H597.9z M608.9,216.7h-6.2v-33.7h6.2V216.7z"/>
			<path class="st0" d="M636.7,171.6v63.8h15.8v-63.8H636.7z M647.7,216.7h-6.2v-33.7h6.2V216.7z"/>
			<path class="st0" d="M614.7,171.6v63.8h21v-63.8H614.7z M629.3,216.7h-8.2v-33.7h8.2V216.7z"/>
			<path class="st0" d="M618.5,157.4v13.1h13.5v-13.1H618.5z M627.9,166.7h-5.3v-6.9h5.3V166.7z"/>
			<polygon class="st0" points="617.5,157.4 617.5,170.5 612.8,170.5 614.7,157.4 			"/>
			<polygon class="st0" points="633.2,157.4 633.2,170.5 637.8,170.5 635.9,157.4 			"/>
			<path class="st0" d="M632,130h-13.4l-3.8,26.8h21.1L632,130z M625.3,149l3.1,2.8h-3.1h-3.1L625.3,149z M628.4,156.4h-6.1h-2.8
				l2.8-3.6h6.1l2.8,3.6H628.4z"/>
			<polygon class="st0" points="633.2,130 639.1,130 651,170.5 639.4,170.5 			"/>
			<polygon class="st0" points="617.5,130 611.6,130 599.7,170.5 611.2,170.5 			"/>
			<polygon class="st0" points="602.8,157.4 599.1,169.2 597.9,169.2 597.9,157.4 			"/>
			<polygon class="st0" points="647.6,157.4 651.4,169.2 652.5,169.2 652.5,157.4 			"/>
			<rect x="610.1" y="126.2" class="st0" width="30.6" height="2.9"/>
			<path class="st0" d="M620.9,103.4h-3c-0.2,0-0.4,0.2-0.4,0.4v20.6h3.8v-20.6C621.3,103.6,621.1,103.4,620.9,103.4z"/>
			<path class="st0" d="M632.8,103.4h-3c-0.2,0-0.4,0.2-0.4,0.4v20.6h3.8v-20.6C633.2,103.6,633,103.4,632.8,103.4z"/>
			<path class="st0" d="M626.8,103.4h-3c-0.2,0-0.4,0.2-0.4,0.4v20.6h3.8v-20.6C627.2,103.6,627,103.4,626.8,103.4z"/>
			<polygon class="st0" points="637.6,100.5 635.6,100.5 631.2,95.3 625.7,95.3 624.9,95.3 619.4,95.3 614.9,100.5 613,100.5 
				613,101.7 613.8,101.7 613.8,126.2 614.9,126.2 614.9,101.7 625.3,101.7 635.7,101.7 635.7,126.2 636.8,126.2 636.8,101.7 
				637.6,101.7 			"/>
			<rect x="619.4" y="91.5" class="st0" width="11.9" height="3.1"/>
			<path class="st0" d="M625.3,90.6h3.9c0.9,0,1.4-1,0.9-1.7c0,0-2-3.1-2.7-4.1c-0.1-0.1-0.1-0.2-0.1-0.3c-0.2-0.5-0.5-1.6-0.6-2.2
				c0-0.1,0-0.2,0-0.3c0-0.3-0.2-1,0-1.2c0.1-0.2,0.8-0.1,0.9-0.3c0.3-0.5,0-1.7,0-2.3c0-0.4-0.2-0.7-0.5-0.9
				c-0.1-0.1-0.4-0.2-0.5-0.3c-0.3-0.2-0.5-0.5-0.5-0.9c0-0.1,0-0.3,0-0.4c0-0.4,0.3-0.8,0.7-1c0,0,0.1,0,0.2-0.1
				c0.4-0.2,0.7-0.5,0.7-1c0-0.1,0-0.4,0-0.6c0-0.4-0.2-0.8-0.6-1c-0.2-0.1-0.5-0.3-0.7-0.4c-0.4-0.2-0.6-0.6-0.6-1.1v0
				c0.1-0.6,0.3-1.2,0.7-1.7c0.1-0.2,0.3-0.5,0.5-0.6c0.1-0.1,0.5-0.1,0.6,0c0.1,0.1,0.3,0.4,0.4,0.5c0.2,0.3,0.6,0.5,0.9,0.5
				c0,0,0.1,0,0.1,0c0.3,0,0.6-0.2,0.8-0.4c0.1-0.1,0.4-0.4,0.4-0.6c0.1-0.2,0.1-0.6,0-0.8c-0.1-0.3-0.5-0.8-0.8-0.9
				c-0.2-0.1-0.7-0.1-0.9,0c-0.2,0.1-0.5,0.5-0.7,0.7c-0.2,0.2-0.4,0.3-0.7,0.3c0,0-0.1,0-0.2,0c-0.3,0-0.7-0.1-0.9-0.4
				c0-0.1-0.1-0.2-0.2-0.3c-0.2-0.2-0.2-0.5-0.2-0.7c0-0.4,0-1.1,0.1-1.5c0-0.1,0.1-0.4,0.2-0.4c0.1-0.1,0.5,0,0.7,0
				c0.2,0,0.3,0,0.5-0.1c0.2-0.1,0.5-0.2,0.6-0.3c0.1-0.1,0.2-0.1,0.3-0.1c0.3,0,0.9-0.1,1.2-0.2c0.3,0,0.5-0.2,0.7-0.4
				c0.1-0.2,0.4-0.5,0.6-0.7c0.1-0.2,0.2-0.4,0.2-0.6c0-0.3,0.1-0.8,0.1-1c0-0.2,0-0.4-0.1-0.5c-0.1-0.3-0.4-1-0.6-1.3
				c-0.1-0.2-0.6-0.3-0.7-0.5c-0.1-0.2,0-0.7,0.1-1c0-0.4,0.3-0.8,0.7-1c0.3-0.1,1.1-0.1,1-0.3c0-0.2-0.5-0.1-0.7-0.1
				c-0.3-0.1-0.6-0.3-0.8-0.7l0,0c-0.1-0.3-0.4-0.6-0.8-0.6c-0.1,0-0.4-0.1-0.6-0.1c-0.2,0-0.3,0-0.5,0c-0.1,0-0.3,0.1-0.4,0.1
				c-0.4,0.1-0.8,0.4-0.8,0.9c0,0.2-0.2,0.5-0.1,0.6c0.1,0.2,0.7,0.4,0.8,0.6c0.2,0.4,0,1.3,0,1.7c0,0.2,0,0.3-0.1,0.5
				c-0.1,0.1-0.2,0.4-0.3,0.5c-0.1,0.2-0.2,0.3-0.4,0.4c-0.2,0.1-0.7,0.6-0.9,0.5c-0.4-0.2-0.3-1.1-0.3-1.5c0-0.1,0-0.1-0.1-0.2
				c-0.1-0.2-0.2-0.6-0.3-0.8c-0.2-0.4-0.6-0.7-1-0.7c-0.1,0-0.4,0-0.6,0c-0.4,0-0.7,0.2-0.9,0.5c-0.1,0.1-0.2,0.3-0.2,0.4
				c-0.1,0.1-0.2,0.3-0.4,0.3c-0.2,0.1-0.5,0.3-0.7,0.4c-0.4,0.2-0.6,0.6-0.6,1c0,0.2,0,0.6,0,0.8c0,0.4,0.2,0.7,0.5,0.9
				c0.2,0.1,0.5,0.3,0.7,0.4c0.1,0.1,0.2,0.1,0.3,0.2c0.2,0.2,0.6,0.7,0.9,1c0.1,0.1,0.2,0.2,0.4,0.3c0.3,0.1,1,0.3,1.2,0.5
				c0,0,0,0.1,0,0.1c0,0-0.2,0-0.2,0c-0.1,0.1,0.2,0.3,0.2,0.4c0.1,0.4,0,1.1,0.1,1.5c0,0.3-0.1,0.5-0.2,0.7c0,0.1-0.1,0.2-0.2,0.3
				c-0.2,0.3-0.5,0.4-0.9,0.4c0,0-0.1,0-0.2,0c-0.3,0-0.5-0.1-0.7-0.3c-0.2-0.2-0.4-0.6-0.7-0.7c-0.2-0.1-0.7-0.1-0.9,0
				c-0.3,0.1-0.7,0.6-0.8,0.9c-0.1,0.2-0.1,0.6,0,0.8c0.1,0.2,0.3,0.4,0.4,0.6c0.2,0.3,0.5,0.4,0.8,0.4c0,0,0.1,0,0.1,0
				c0.4,0,0.7-0.2,0.9-0.5c0.1-0.1,0.2-0.5,0.4-0.5c0.1-0.1,0.5-0.1,0.6,0c0.2,0.1,0.4,0.5,0.5,0.6c0.4,0.5,0.7,1.1,0.7,1.7v0
				c0,0.4-0.2,0.8-0.6,1.1c-0.2,0.1-0.5,0.3-0.7,0.4c-0.4,0.2-0.6,0.6-0.6,1c0,0.1,0,0.4,0,0.6c0,0.4,0.3,0.8,0.7,1
				c0,0,0.1,0,0.2,0.1c0.4,0.2,0.7,0.6,0.7,1c0,0.1,0,0.3,0,0.4c0,0.4-0.2,0.7-0.5,0.9c-0.1,0.1-0.4,0.2-0.5,0.3
				c-0.3,0.2-0.5,0.5-0.5,0.9c0,0.6-0.4,1.8,0,2.3c0.1,0.2,0.8,0.1,0.9,0.3c0.2,0.2,0,0.9,0,1.2c0,0.1,0,0.2,0,0.3
				c-0.2,0.5-0.5,1.6-0.6,2.2c0,0.1-0.1,0.2-0.1,0.3c-0.7,1-2.7,4.1-2.7,4.1c-0.5,0.7,0,1.7,0.9,1.7H625.3"/>
		</g>
		<g>
			<polygon class="st0" points="573.2,163.3 563.4,129.2 553.8,129.2 553.8,126.8 550.4,126.8 549.3,126.8 545.8,126.8 545.8,129.2 
				536.3,129.2 526.4,163.3 519.6,163.3 519.6,185.1 521.4,185.1 537,132.3 549.8,132.2 562.7,132.3 578.3,185.1 580,185.1 
				580,163.3 			"/>
			<polygon class="st0" points="516.5,186.6 532,186.6 549.8,167.7 549.8,174.6 534.9,190.6 516.5,190.6 			"/>
			<polygon class="st0" points="583.2,186.6 567.7,186.6 549.8,167.7 549.8,174.6 564.8,190.6 583.2,190.6 			"/>
			<path class="st0" d="M549.8,180.6c-4.4,0-7.9,3.5-7.9,7.9s3.5,7.9,7.9,7.9c4.4,0,7.9-3.5,7.9-7.9S554.2,180.6,549.8,180.6z
				 M552.9,192.2c-0.1,0.1-0.3,0.1-0.5,0l-2.7-2.7c-0.1-0.1-0.2-0.1-0.2-0.3V184c0-0.2,0.2-0.3,0.3-0.3c0.2,0,0.3,0.2,0.3,0.3v5
				l2.7,2.7C553.1,191.8,553.1,192,552.9,192.2z"/>
			<path class="st0" d="M559.3,192.5c-1.6,3.7-5.2,6.2-9.4,6.2c-4.2,0-7.9-2.6-9.4-6.2h-19.6v76h58.1v-76H559.3z M538.3,245.5h-6.1
				v-31.1c0-1.7,1.4-3.1,3.1-3.1c1.7,0,3.1,1.4,3.1,3.1V245.5z M548.1,245.5H542v-31.1c0-1.7,1.4-3.1,3.1-3.1c1.7,0,3.1,1.4,3.1,3.1
				V245.5z M557.8,245.5h-6.1v-31.1c0-1.7,1.4-3.1,3.1-3.1s3.1,1.4,3.1,3.1V245.5z M567.6,245.5h-6.1v-31.1c0-1.7,1.4-3.1,3.1-3.1
				c1.7,0,3.1,1.4,3.1,3.1V245.5z"/>
			<path class="st0" d="M520.8,269.8v81.4h14.5v-32c0-9.2,13.2-11,13.2-11v43h2.1v-43c0,0,13.2,1.9,13.2,11v32h15v-81.4H520.8z"/>
		</g>
		<g>
			<path class="st0" d="M722.7,160.8L705,78.6l-17.7,82.2H705H722.7z M705,89.4l15,69.5h-15h-15L705,89.4z"/>
			<polygon class="st0" points="720,158.9 705,89.4 690.1,158.9 705,158.9 			"/>
			<path class="st0" d="M707.8,71.2l20.2,94h-23h-23l20.2-94H707.8 M686.2,161.7h1.1H705h17.7h1.1l-0.2-1.1l-17.7-82.2l-0.9-4.2
				l-0.9,4.2l-17.7,82.2L686.2,161.7 M708.5,70.3h-7l-20.6,95.8H705h24.1L708.5,70.3L708.5,70.3z M687.4,160.8L705,78.6l17.7,82.2
				H705H687.4L687.4,160.8z"/>
			<g>
				<rect x="702" y="62.2" class="st0" width="6.1" height="7.3"/>
				<path class="st0" d="M707.2,63.1v5.5h-4.3v-5.5H707.2 M708.1,62.2H702v7.3h6.1V62.2L708.1,62.2z"/>
			</g>
			<g>
				<path class="st0" d="M701.6,48.7c0.3,0.3,0.8,1,1,1.3c0.3,0.7,0.7,2.2,0.7,2.9c0,0.7-1.5,2.1-0.9,2.5c0.3,0.3,1-1.1,1.4-1
					c0.4,0.1,0.6,1.3,0.7,1.7c0.2,0.7,0.6,3,0.6,3s0.3-2.3,0.6-3c0.1-0.4,0.2-1.6,0.7-1.7c0.4-0.1,1.1,1.3,1.4,1
					c0.5-0.4-0.9-1.8-0.9-2.5c-0.1-0.7,0.4-2.2,0.7-2.9c0.2-0.4,0.7-1,1-1.3c0.7-0.6,3-1.2,3-2.1c0-0.8-1.7-1.9-2.5-1.8
					c-0.7,0.1-1.2,1.9-1.8,2.3c-0.3,0.2-1.2,0.6-1.6,0.4c-0.2-0.2-0.3-0.9-0.2-1.1c0.1-0.4,1-0.9,1-1.3c0-0.4-0.4-1.1-0.7-1.3
					c-0.2-0.1-0.5,0.2-0.7,0.2s-0.5-0.3-0.7-0.2c-0.3,0.1-0.8,0.9-0.7,1.3c0,0.4,0.9,0.9,1,1.3c0.1,0.3,0,1-0.2,1.1
					c-0.3,0.2-1.2-0.2-1.6-0.4c-0.6-0.4-1.1-2.2-1.8-2.3c-0.8-0.1-2.5,1-2.5,1.8C698.6,47.5,701,48,701.6,48.7z"/>
				<path class="st0" d="M705,62.2l-0.5-3c0,0-0.3-2.3-0.5-3c0-0.1-0.1-0.3-0.1-0.4c0-0.2-0.1-0.7-0.3-0.9c-0.1,0.1-0.2,0.2-0.3,0.3
					c-0.3,0.4-0.8,0.9-1.3,0.5c-0.6-0.5-0.1-1.3,0.3-2c0.2-0.3,0.4-0.7,0.4-0.8c0-0.6-0.3-2-0.6-2.7c-0.1-0.3-0.6-0.9-0.9-1.2
					c-0.2-0.2-0.7-0.4-1.1-0.6c-1-0.5-2-0.9-2-1.8c0-0.5,0.4-1,0.7-1.3c0.6-0.5,1.6-1,2.2-1c0.6,0.1,1,0.8,1.4,1.5
					c0.2,0.4,0.4,0.8,0.6,0.9c0.3,0.2,0.9,0.4,1.1,0.4c0-0.1,0.1-0.5,0-0.6c0-0.1-0.2-0.3-0.4-0.4c-0.3-0.3-0.6-0.6-0.7-1
					c0-0.5,0.5-1.5,1-1.7c0.3-0.1,0.5,0,0.7,0.1c0,0,0.1,0,0.1,0c0,0,0.1,0,0.1,0c0.2-0.1,0.5-0.2,0.7-0.1c0.6,0.2,1.1,1.2,1,1.7
					c0,0.4-0.4,0.7-0.7,1c-0.1,0.1-0.3,0.3-0.4,0.4c0,0.2,0,0.5,0,0.6c0.2,0,0.7-0.2,1.1-0.4c0.2-0.1,0.4-0.6,0.6-0.9
					c0.4-0.7,0.8-1.4,1.4-1.5c0.7-0.1,1.6,0.4,2.2,1c0.3,0.3,0.8,0.8,0.7,1.3c0,0.9-1,1.3-2,1.8c-0.5,0.2-0.9,0.4-1.1,0.6
					c-0.3,0.3-0.7,0.9-0.9,1.2c-0.3,0.7-0.7,2.1-0.6,2.7c0,0.2,0.3,0.6,0.4,0.8c0.4,0.7,1,1.5,0.3,2c-0.5,0.4-1-0.2-1.3-0.5
					c-0.1-0.1-0.2-0.2-0.3-0.3c-0.1,0.2-0.2,0.7-0.2,0.9c0,0.2-0.1,0.3-0.1,0.4c-0.2,0.7-0.5,2.9-0.5,3L705,62.2z M703.7,53.9
					c0.1,0,0.1,0,0.2,0c0.6,0.2,0.8,1,0.9,1.7c0,0.1,0.1,0.3,0.1,0.4c0,0.1,0.1,0.3,0.1,0.5c0-0.2,0.1-0.3,0.1-0.5
					c0-0.1,0.1-0.2,0.1-0.4c0.1-0.7,0.3-1.5,0.9-1.7c0.3-0.1,0.5,0,0.7,0.2c-0.3-0.4-0.5-0.8-0.5-1.2c-0.1-0.8,0.4-2.4,0.7-3.1
					c0.2-0.4,0.7-1.1,1.1-1.5c0.3-0.3,0.8-0.5,1.4-0.8c0.5-0.2,1.5-0.7,1.5-1c0-0.1-0.1-0.3-0.4-0.6c-0.5-0.5-1.2-0.8-1.5-0.7
					c-0.2,0-0.6,0.7-0.7,1c-0.3,0.5-0.5,1-0.9,1.2c0,0-1.4,0.9-2.1,0.4c-0.1-0.1-0.2-0.2-0.3-0.4c-0.1,0.2-0.2,0.3-0.3,0.4
					c-0.7,0.5-2.1-0.4-2.1-0.4c-0.4-0.2-0.6-0.7-0.9-1.2c-0.2-0.3-0.5-1-0.7-1c-0.3,0-1,0.3-1.5,0.7c-0.4,0.3-0.4,0.5-0.4,0.6
					c0,0.3,1,0.7,1.5,1c0.6,0.3,1.1,0.5,1.4,0.8l0,0c0.3,0.3,0.9,1,1.1,1.5c0.3,0.7,0.8,2.3,0.7,3.1c0,0.4-0.3,0.8-0.5,1.2
					C703.4,54,703.5,53.9,703.7,53.9z M704.5,44.2c-0.2,0.2-0.4,0.6-0.4,0.8c0,0.1,0.3,0.3,0.4,0.4c0.2,0.2,0.4,0.4,0.5,0.6
					c0.1-0.2,0.3-0.4,0.5-0.6c0.1-0.1,0.4-0.3,0.4-0.4c0-0.1-0.2-0.6-0.4-0.8c0,0,0,0-0.1,0C705.2,44.4,704.8,44.4,704.5,44.2
					C704.5,44.3,704.5,44.3,704.5,44.2z M705.7,44.2L705.7,44.2L705.7,44.2z"/>
			</g>
			<polygon class="st0" points="703.5,170.8 703.5,168.1 676.1,168.1 677.9,170.8 			"/>
			<polygon class="st0" points="731.8,170.8 733.6,168.1 706.2,168.1 706.2,170.8 			"/>
			<rect x="703.5" y="168.1" class="st0" width="2.7" height="2.7"/>
			<rect x="678.7" y="172.1" class="st0" width="52" height="3.1"/>
			<path class="st0" d="M731,207h-52.8v-30.7H731V207z M679.1,206.1h50.9v-28.9h-50.9V206.1z M727.2,203.2h-43.7v-22.9h43.7V203.2z
				 M684.4,202.3h41.8v-21.1h-41.8V202.3z"/>
			<path class="st0" d="M727.2,203.2h-43.7v-22.9h43.7V203.2z M684.4,202.3h41.8v-21.1h-41.8V202.3z M705.7,199
				C705.7,199,705.6,199,705.7,199c-0.4,0-0.7-0.1-1.1-0.3l-0.1-0.1c-0.2-0.1-0.5-0.3-0.7-0.5c-0.2-0.2-0.6-0.4-0.7-0.5
				c-0.1,0-0.5,0-0.8,0c-0.5,0.1-1,0.1-1.3,0c-0.7-0.3-2.4-1.6-2.5-2.6c-0.1-1,1.3-2.5,2.2-2.8c0.5-0.2,1.6-0.1,2,0.2
				c0.3,0.2,0.3,0.5,0.4,0.9c0,0.1,0,0.2,0.1,0.3c0.1,0,0.4,0,0.5,0c0-0.1,0-0.3,0-0.4c0-0.2,0-0.3,0-0.4c0-0.2,0-0.4,0.1-0.5
				c0-0.1,0-0.2,0-0.2c-0.1-0.2-0.3-0.9-0.4-1c-0.1-0.1-0.2-0.2-0.4-0.4c-0.3-0.3-0.7-0.6-0.8-0.9c-0.2-0.4-0.4-1-0.2-1.6
				c0.2-0.7,0.4-1.1,0.7-1.2l0.2-0.1l0.3,0.1c0.5,0.2,0.4,0.8,0.3,1.2c0,0.1-0.1,0.3,0,0.3c0.1,0.2,0.8,0.9,1.1,1c0,0,0,0,0.1-0.1
				c0,0,0.1-0.2-0.1-1.2c-0.1-0.5,0-0.9,0.2-1.2c0.2-0.6,0.9-0.9,0.9-0.9l0.1-0.1l0.1,0c0.2,0,1.2,0.1,1.4,0.8
				c0.2,0.4,0.1,1,0.1,1.4c-0.2,0.9-0.1,1.1-0.1,1.2c0.1,0,0.3,0,0.4,0c0.8,0.2,2,1.5,2.1,2.3c0,0.1,0,0.3-0.1,0.4
				c0.5-0.1,1-0.1,1.3,0c0.8,0.3,2.2,1.8,2.2,2.8c-0.1,1.1-1.7,2.3-2.5,2.6l0,0c-0.4,0.2-0.8,0.1-1.3,0c-0.3,0-0.6-0.1-0.8,0
				c-0.2,0-0.5,0.3-0.7,0.5c-0.3,0.2-0.5,0.4-0.7,0.5l-0.1,0.1C706.3,198.8,706,199,705.7,199z M705.6,198.1L705.6,198.1
				c0.2,0,0.5-0.2,0.6-0.2l0.1-0.1c0.1-0.1,0.4-0.2,0.6-0.4c0.3-0.3,0.7-0.5,1-0.6c0.3-0.1,0.7,0,1.1,0c0.3,0,0.7,0.1,0.9,0l0,0
				c0.7-0.3,1.9-1.4,1.9-1.8c0-0.5-1-1.7-1.6-1.9c-0.2-0.1-0.9,0-1.1,0.1l0,0c0,0,0,0.2,0,0.3c0,0.3-0.1,0.7-0.4,0.9
				c-0.4,0.3-1.4,0.2-1.7-0.2c-0.3-0.3-0.2-0.7-0.1-1.1c0-0.1,0-0.2,0-0.3c0-0.1,0-0.2,0-0.3c-0.1-0.2-0.1-0.4,0-0.8
				c0.1-0.2,0.2-0.4,0.5-0.4c0.2-0.2,0.6-0.2,0.8-0.1c-0.3-0.4-0.8-0.8-1-0.9c-0.1,0-0.1,0-0.2,0c-0.2,0-0.5,0-0.7-0.3
				c-0.4-0.4-0.3-1.2-0.1-2c0.1-0.3,0.1-0.7,0-0.9c0-0.1-0.3-0.1-0.5-0.2c-0.1,0.1-0.3,0.2-0.4,0.4c-0.1,0.3-0.2,0.5-0.1,0.7
				c0.2,0.8,0.3,1.6-0.1,2c-0.5,0.5-0.9,0.4-1.2,0.2c-0.1-0.1-0.3-0.2-0.6-0.4c0,0,0.1,0.1,0.1,0.1c0.2,0.2,0.3,0.3,0.5,0.4
				c0.2,0.2,0.6,1.3,0.6,1.3c0.1,0.3,0,0.6,0,0.8c0,0.1,0,0.2,0,0.3c0,0.1,0,0.2,0,0.3c0.1,0.4,0.1,0.8-0.1,1.1
				c-0.4,0.4-1.3,0.5-1.7,0.2c-0.3-0.2-0.4-0.6-0.4-0.9c0-0.1,0-0.3-0.1-0.3c-0.1-0.1-0.8-0.2-1-0.1c-0.6,0.3-1.6,1.5-1.6,1.9
				c0,0.5,1.2,1.5,1.9,1.8c0.1,0.1,0.6,0,0.9,0c0.4,0,0.8-0.1,1.1,0c0.3,0.1,0.7,0.4,1,0.6c0.2,0.2,0.4,0.3,0.6,0.4l0.2,0.1
				C705.1,197.9,705.5,198.1,705.6,198.1L705.6,198.1z M703.1,193.6L703.1,193.6L703.1,193.6z M707.8,193.5c0.1,0,0.3,0.1,0.5,0
				c0-0.1,0-0.2,0-0.3c0-0.3,0.1-0.6,0.4-0.9c0,0,0.1-0.1,0.1-0.1c-0.2,0-0.3-0.1-0.5-0.2c-0.1,0-0.3-0.1-0.4-0.1
				c0,0-0.1,0.1-0.1,0.1c0,0,0,0.1,0,0.1c0,0.1,0.1,0.3,0.1,0.5c0,0.1,0,0.3,0,0.4C707.8,193.3,707.8,193.4,707.8,193.5z"/>
			<path class="st0" d="M705.5,186.5c0,0-0.5,0.3-0.7,0.7c-0.1,0.3-0.2,0.6-0.1,1c0.1,0.4,0.3,1.3,0,1.6c-0.2,0.2-0.4,0.3-0.7,0.2
				c-0.3-0.2-1.2-1-1.3-1.3c-0.1-0.3,0.3-1.1,0-1.2c-0.2-0.1-0.5,0.7-0.6,0.9c-0.1,0.4,0,0.9,0.2,1.2c0.2,0.4,0.9,0.9,1.2,1.2
				c0.1,0.1,0.4,0.9,0.5,1.1c0.1,0.3-0.1,0.5-0.1,0.9c0,0.3,0.2,0.9,0,1.1c-0.2,0.2-0.9,0.3-1.1,0.1c-0.3-0.2-0.2-1-0.4-1.1
				c-0.3-0.2-1.2-0.3-1.5-0.2c-0.7,0.3-1.9,1.6-1.9,2.4c0,0.8,1.5,1.9,2.2,2.2c0.5,0.2,1.6-0.1,2.1,0c0.4,0.1,1.1,0.8,1.5,1
				c0.2,0.1,0.7,0.4,1,0.3c0,0-0.1,0-0.1,0C703.1,196.6,705.5,186.5,705.5,186.5z"/>
			<path class="st0" d="M710.5,192.6c-0.4-0.1-1.2-0.1-1.5,0.2c-0.2,0.2-0.1,1-0.4,1.1c-0.2,0.2-1,0.1-1.2-0.1c-0.2-0.2,0-0.8,0-1.1
				c0-0.4-0.2-0.5-0.1-0.9c0.1-0.2,0.2-0.1,0.3-0.2c0.3-0.3,1.4,0.6,1.4,0.2c-0.1-0.6-1.1-1.8-1.7-1.9c-0.3-0.1-0.4,0.1-0.7-0.2
				c-0.3-0.3-0.1-1.2,0-1.6c0.1-0.3,0.1-0.8,0-1.1c-0.2-0.4-1-0.5-1-0.5s2.7,10.1,0.2,12c0,0-0.1,0-0.1,0c0.3,0,0.7-0.2,1-0.3
				c0.4-0.2,1.1-0.8,1.5-1c0.5-0.1,1.6,0.2,2.1,0c0.7-0.3,2.1-1.5,2.2-2.2C712.4,194.2,711.2,192.9,710.5,192.6z"/>
			<path class="st0" d="M705.5,186.5c0,0-2.5,10.1,0,12c0,0,0.1,0,0.1,0c0,0,0.1,0,0.1,0C708.2,196.6,705.5,186.5,705.5,186.5z"/>
			<g>
				<rect x="696.6" y="209.8" class="st0" width="1" height="5.4"/>
				<rect x="698.6" y="209.8" class="st0" width="1" height="5.4"/>
				<rect x="700.6" y="209.8" class="st0" width="1" height="5.4"/>
				<rect x="694.7" y="209.8" class="st0" width="1" height="5.4"/>
				<rect x="702.6" y="209.8" class="st0" width="1" height="5.4"/>
				<rect x="684.9" y="209.8" class="st0" width="1" height="5.4"/>
				<rect x="706.4" y="209.8" class="st0" width="1" height="5.4"/>
				<rect x="690.9" y="209.8" class="st0" width="1" height="5.4"/>
				<rect x="683" y="209.8" class="st0" width="1" height="5.4"/>
				<rect x="688.9" y="209.8" class="st0" width="1" height="5.4"/>
				<rect x="686.9" y="209.8" class="st0" width="1" height="5.4"/>
				<rect x="714.3" y="209.8" class="st0" width="1" height="5.4"/>
				<rect x="724" y="209.8" class="st0" width="1" height="5.4"/>
				<rect x="722" y="209.8" class="st0" width="1" height="5.4"/>
				<rect x="726" y="209.8" class="st0" width="1" height="5.4"/>
				<rect x="708.3" y="209.8" class="st0" width="1" height="5.4"/>
				<rect x="710.3" y="209.8" class="st0" width="1" height="5.4"/>
				<rect x="712.3" y="209.8" class="st0" width="1" height="5.4"/>
				<rect x="718.1" y="209.8" class="st0" width="1" height="5.4"/>
				<rect x="720.1" y="209.8" class="st0" width="1" height="5.4"/>
				<g>
					<rect x="706.4" y="209.8" class="st0" width="1" height="5.4"/>
					<rect x="696.6" y="209.8" class="st0" width="1" height="5.4"/>
					<rect x="700.6" y="209.8" class="st0" width="1" height="5.4"/>
					<rect x="694.7" y="209.8" class="st0" width="1" height="5.4"/>
					<rect x="702.6" y="209.8" class="st0" width="1" height="5.4"/>
					<rect x="698.6" y="209.8" class="st0" width="1" height="5.4"/>
					<rect x="683" y="209.8" class="st0" width="1" height="5.4"/>
					<rect x="690.9" y="209.8" class="st0" width="1" height="5.4"/>
					<rect x="688.9" y="209.8" class="st0" width="1" height="5.4"/>
					<rect x="684.9" y="209.8" class="st0" width="1" height="5.4"/>
					<rect x="686.9" y="209.8" class="st0" width="1" height="5.4"/>
					<rect x="726" y="209.8" class="st0" width="1" height="5.4"/>
					<rect x="724" y="209.8" class="st0" width="1" height="5.4"/>
					<rect x="722" y="209.8" class="st0" width="1" height="5.4"/>
					<rect x="708.3" y="209.8" class="st0" width="1" height="5.4"/>
					<rect x="714.3" y="209.8" class="st0" width="1" height="5.4"/>
					<rect x="710.3" y="209.8" class="st0" width="1" height="5.4"/>
					<rect x="712.3" y="209.8" class="st0" width="1" height="5.4"/>
					<rect x="720.1" y="209.8" class="st0" width="1" height="5.4"/>
					<rect x="718.1" y="209.8" class="st0" width="1" height="5.4"/>
					<path class="st0" d="M675.3,207.5v8.8h59.7v-8.8H675.3z M684,215.2h-1v-5.4h1V215.2z M686,215.2h-1v-5.4h1V215.2z M687.9,215.2
						h-1v-5.4h1V215.2z M689.9,215.2h-1v-5.4h1V215.2z M691.9,215.2h-1v-5.4h1V215.2z M695.7,215.2h-1v-5.4h1V215.2z M697.7,215.2
						h-1v-5.4h1V215.2z M699.6,215.2h-1v-5.4h1V215.2z M701.6,215.2h-1v-5.4h1V215.2z M703.6,215.2h-1v-5.4h1V215.2z M707.4,215.2
						h-1v-5.4h1V215.2z M709.4,215.2h-1v-5.4h1V215.2z M711.3,215.2h-1v-5.4h1V215.2z M713.3,215.2h-1v-5.4h1V215.2z M715.3,215.2
						h-1v-5.4h1V215.2z M719.1,215.2h-1v-5.4h1V215.2z M721.1,215.2h-1v-5.4h1V215.2z M723.1,215.2h-1v-5.4h1V215.2z M725,215.2h-1
						v-5.4h1V215.2z M727,215.2h-1v-5.4h1V215.2z"/>
				</g>
			</g>
			<polygon class="st0" points="734.6,220.7 737.9,217.2 672.1,217.2 675.4,220.7 			"/>
			<rect x="675.3" y="221.6" class="st0" width="59.7" height="7.2"/>
			<polygon class="st0" points="673.5,230.2 674.6,232.3 736.2,232.3 737.3,230.2 			"/>
			<path class="st0" d="M675.3,233.8v28.7h59.7v-28.7H675.3z M691.9,257.1h-7v-17.1c0-1.9,1.6-3.5,3.5-3.5c1.9,0,3.5,1.6,3.5,3.5
				V257.1z M702.8,257.1h-7v-17.1c0-1.9,1.6-3.5,3.5-3.5c1.9,0,3.5,1.6,3.5,3.5V257.1z M713.7,257.1h-7v-17.1c0-1.9,1.6-3.5,3.5-3.5
				c1.9,0,3.5,1.6,3.5,3.5V257.1z M724.6,257.1h-7v-17.1c0-1.9,1.6-3.5,3.5-3.5c1.9,0,3.5,1.6,3.5,3.5V257.1z"/>
			<polygon class="st0" points="673.5,264 674.6,266.1 736.2,266.1 737.3,264 			"/>
			<rect x="675.3" y="267.6" class="st0" width="59.7" height="14.9"/>
			<rect x="675.3" y="292" class="st0" width="6.5" height="59.2"/>
			<rect x="728.5" y="292" class="st0" width="6.5" height="59.2"/>
			<rect x="688.6" y="292" class="st0" width="6.5" height="59.2"/>
			<rect x="701.9" y="292" class="st0" width="6.5" height="59.2"/>
			<rect x="715.2" y="292" class="st0" width="6.5" height="59.2"/>
			<path class="st0" d="M686.6,309.7c0-0.8-0.6-1.4-1.4-1.4h-0.3c-0.8,0-1.4,0.6-1.4,1.4v4.7h3.2V309.7z"/>
			<path class="st0" d="M683.5,339.8v4.5h3.2v-4.5c0-0.9-0.7-1.6-1.6-1.6C684.2,338.2,683.5,338.9,683.5,339.8z"/>
			<polygon class="st0" points="675,291 681.7,291 681.7,288.9 673.7,288.9 			"/>
			<path class="st0" d="M725.1,284.5c1.9,0,3.4,1.5,3.4,3.4h6.5v-5.2h-59.7v5.2h6.5h0.1c0-1.9,1.5-3.4,3.4-3.4
				c1.9,0,3.4,1.5,3.4,3.4h6.3c0-1.9,1.5-3.4,3.4-3.4c1.9,0,3.4,1.5,3.4,3.4h6.5c0-1.9,1.5-3.4,3.4-3.4c1.9,0,3.4,1.5,3.4,3.4h6.5
				C721.6,286.1,723.2,284.5,725.1,284.5z"/>
			<rect x="675.3" y="282.5" class="st0" width="59.7" height="0.2"/>
			<polygon class="st0" points="736.5,288.9 728.5,288.9 728.5,291 735.2,291 			"/>
			<rect x="688.6" y="288.9" class="st0" width="6.2" height="2.1"/>
			<rect x="701.9" y="288.9" class="st0" width="6.5" height="2.1"/>
			<rect x="715.2" y="288.9" class="st0" width="6.5" height="2.1"/>
		</g>
		<rect x="511.1" y="355.8" class="st0" width="230.9" height="6.5"/>
	</g>
</g>
</svg>
