<?xml version="1.0" encoding="utf-8"?>
<!-- Generator: Adobe Illustrator 23.0.1, SVG Export Plug-In . SVG Version: 6.00 Build 0)  -->
<svg version="1.1" id="Layer_1" xmlns="http://www.w3.org/2000/svg" xmlns:xlink="http://www.w3.org/1999/xlink" x="0px" y="0px"
	 viewBox="0 0 24 24" style="enable-background:new 0 0 24 24;" xml:space="preserve">
<style type="text/css">
	.st0{fill:#FFFFFF;}
</style>
<title>CodePen icon</title>
<path class="st0" d="M24,8.2L24,8.2L24,8c0,0,0,0,0-0.1c0,0,0,0,0-0.1l0-0.1l0-0.1l0-0.1l0,0l-0.1,0l0,0l-0.1,0l0,0l0,0l-11-7.3
	c-0.3-0.2-0.8-0.2-1.1,0l-11,7.3l0,0l0,0L0.3,7.6l0,0l0,0.1l0,0l0,0.1c0,0,0,0,0,0l0,0.1l0,0.1C0,8,0,8,0,8l0,0.1c0,0,0,0.1,0,0.1
	v7.5c0,0,0,0.1,0,0.1l0,0c0,0,0,0.1,0,0.1l0,0.1c0,0,0,0.1,0,0.1l0,0c0,0,0,0,0,0.1l0,0c0,0,0,0,0,0.1l0,0l0,0c0,0,0,0,0,0l0.1,0
	l0,0l0,0l11,7.3c0.2,0.1,0.4,0.2,0.6,0.2s0.4-0.1,0.6-0.2l11-7.3l0,0l0,0l0.1,0l0,0l0.1-0.1l0,0l0-0.1l0,0l0-0.1l0-0.1l0-0.1l0,0
	l0-0.1V8.3C24,8.3,24,8.2,24,8.2L24,8.2L24,8.2L24,8.2z M12,14.5L8.4,12L12,9.6l3.6,2.4L12,14.5L12,14.5z M11,7.8l-4.5,3L2.9,8.4
	L11,3L11,7.8L11,7.8z M4.6,12l-2.6,1.7v-3.5L4.6,12L4.6,12z M6.5,13.3l4.5,3v4.8l-8.1-5.4L6.5,13.3L6.5,13.3L6.5,13.3z M13,16.3
	l4.5-3l3.6,2.4L13,21.1L13,16.3L13,16.3z M19.4,12l2.6-1.7v3.5L19.4,12L19.4,12z M17.5,10.8l-4.5-3V3l8.1,5.4L17.5,10.8L17.5,10.8
	L17.5,10.8z"/>
</svg>
