<?xml version="1.0" encoding="utf-8"?>
<!-- Generator: Adobe Illustrator 23.0.1, SVG Export Plug-In . SVG Version: 6.00 Build 0)  -->
<svg version="1.1" id="Layer_1" xmlns="http://www.w3.org/2000/svg" xmlns:xlink="http://www.w3.org/1999/xlink" x="0px" y="0px"
	 viewBox="0 0 337 335" style="enable-background:new 0 0 337 335;" xml:space="preserve">
<style type="text/css">
	.st0{fill:#FFFFFF;}
</style>
<path class="st0" d="M317.5,32.5h-6.4c-1.6-2.2-3.3-4.3-5.2-6.3c-9-9.1-21.1-14.1-33.9-14.1c-12,0-23.3,4.4-32.2,12.5
	c-5.6-5.3-12.4-10.1-20.2-14.2c-18.6-9.9-38.7-13-53.5-8.5c-8,2.5-14,7.1-17.3,13.4c-2.7,5-3.5,10.9-2.4,17.1H84.3
	c-10.5,0-18.9,8.5-18.9,18.9v109c-1.7-0.2-3.5-0.3-5.3-0.3c-12.8,0-24.8,5-33.9,14.1c-9,9-14,21.1-14,33.8c0,12,4.4,23.4,12.5,32.2
	c-5.2,5.6-10.1,12.4-14.2,20.2c-9.9,18.6-13,38.7-8.5,53.5c2.5,8,7.1,14,13.4,17.3c6.3,3.3,13.8,3.8,21.8,1.3
	c13.5-4.2,27-16.1,36.7-32.3c3,2,6.5,3.3,10.4,3.3h233.2c10.5,0,18.9-8.5,18.9-18.9V51.4C336.4,41,328,32.5,317.5,32.5L317.5,32.5z
	 M270.1,20.1c11.2,0,21.7,4.4,29.6,12.3C307.7,40.3,312,50.8,312,62c0,3.9-0.6,7.7-1.6,11.4l-51.7-51.7
	C262.4,20.7,266.2,20.1,270.1,20.1L270.1,20.1z M296.8,94.5l-3,3l-21-21c2.4,0.4,5,1.3,7.5,2.6C286.3,82.3,291.9,87.7,296.8,94.5
	L296.8,94.5z M286.4,73.8c-0.8-0.5-1.6-1.1-2.4-1.5c-6.4-3.3-12.8-4.5-18.8-3.4l-6.9-7c0.5-7.2-1.7-14.9-6.3-22.5L286.4,73.8z
	 M252.8,87.6c0.8-1.5,1.7-2.8,2.6-4l26.1,26.2l-7.5,7.6c-0.2,0.2-0.4,0.4-0.6,0.6l-23.3-23.3C250.8,92.1,251.7,89.7,252.8,87.6
	L252.8,87.6z M238.4,34.5c5.6,6.2,9.5,12.7,11.2,18.8l-15-15L238.4,34.5z M244.7,72.9c-2.3,2.1-5.3,3.7-8.8,4.8
	c-0.7,0.2-1.4,0.3-2.1,0.5l-19.5-19.5c0.2-0.2,0.3-0.4,0.5-0.6l7.6-7.6L244.7,72.9z M155.7,19c2.3-4.4,6.7-7.7,12.7-9.6
	c12.8-4,31-0.9,47.6,7.9c6.9,3.6,13,8.1,18.1,12.8l-25.5,25.5c-5.2,5.2-9.1,11.5-11.4,18.3c-3-1.2-6.1-2.5-9.1-4.1
	c-16.6-8.8-29.4-22.2-33.3-34.9C153.1,29,153.3,23.5,155.7,19L155.7,19z M208.6,77.5c-1.5-0.4-3-0.8-4.4-1.2
	c0.2-0.8,0.5-1.7,0.7-2.5L208.6,77.5z M79.1,199.7c3.2-5.9,8.5-11.6,15.4-16.5l3,3l-21,21C77,204.8,77.8,202.3,79.1,199.7
	L79.1,199.7z M94.6,230c-2.5-0.7-4.9-1.6-6.9-2.7c-1.5-0.8-2.8-1.7-4-2.6l26.2-26.2l7.5,7.5c0.2,0.2,0.4,0.4,0.6,0.6L94.6,230z
	 M127.2,221.8c1,2.7,1.6,5.5,2,8.4c-4.1,0.9-8.2,1.5-12.2,1.8L127.2,221.8z M68.8,214.9l-7,6.9c-7.2-0.6-14.9,1.7-22.5,6.3
	l34.4-34.4c-0.5,0.8-1.1,1.6-1.5,2.4C68.9,202.5,67.8,208.9,68.8,214.9L68.8,214.9z M53.2,230.5l-15,15l-3.8-3.8
	C40.6,236.1,47.1,232.2,53.2,230.5L53.2,230.5z M21.7,221.3c-1-3.7-1.6-7.5-1.6-11.4c0-11.2,4.4-21.7,12.3-29.6
	C40.3,172.4,50.8,168,62,168c3.9,0,7.7,0.6,11.4,1.6L21.7,221.3z M69.8,291.8c-8.8,16.6-22.2,29.4-34.9,33.3
	c-6,1.9-11.5,1.6-15.9-0.8c-4.4-2.3-7.7-6.7-9.6-12.7c-3.9-12.8-0.9-31,7.9-47.7c3.6-6.9,8.1-13,12.9-18.1l25.4,25.5
	c5.3,5.2,11.5,9,18.3,11.4C72.7,285.8,71.4,288.8,69.8,291.8L69.8,291.8z M76.3,275.9c-0.9-0.2-1.7-0.5-2.5-0.8l3.7-3.7
	C77.2,273,76.8,274.4,76.3,275.9L76.3,275.9z M58.7,265.9c-0.2-0.2-0.4-0.4-0.6-0.6l-7.6-7.6l22.4-22.4c2.1,2.3,3.7,5.3,4.8,8.8
	c0.2,0.7,0.3,1.4,0.5,2.1L58.7,265.9z M84,234.1c1.4,0.8,2.9,1.4,4.5,2l-4.1,4c-1.2-3.2-2.6-6.1-4.5-8.5
	C81.2,232.5,82.6,233.3,84,234.1L84,234.1z M87.7,277.5c-1.2,0-2.5-0.1-3.7-0.1c1.5-5.2,2.5-10.3,2.9-15.3l7.7-7.7
	c-1.1,5.1,0.3,10.6,4.3,14.5l7.5,4.2C100.7,276,94.3,277.5,87.7,277.5L87.7,277.5z M106.6,242.4l2.4-2.4c6.5,0.2,13.4-0.5,20.4-2
	c-0.3,5.6-1.7,11-4.1,16l-4.5-7.5C116.9,242.7,111.6,241.3,106.6,242.4L106.6,242.4z M113.3,279c0.6-0.4,1.2-0.6,1.8-1l13.6-13.8
	l21.5,35.7L113.3,279z M175.2,200.3c-6.2,11.7-20.9,22.3-38.6,27.9c-1.8-9.2-6.3-17.7-13.1-24.5l-23.8-23.7c5.6-3.3,12-6.2,18.7-8.3
	c27.2-8.4,54.3-2.5,59,12.9C178.8,189.3,178.1,194.8,175.2,200.3L175.2,200.3z M181,152l21-37.1c0,0.1,0.1,0.2,0.1,0.3l15.2,15
	L181,152z M211.2,99l-4.2,7.5c-2.9-5.8-4.4-12.1-4.4-18.8c0-1.2,0-2.5,0.1-3.7c5.2,1.5,10.3,2.5,15.3,2.9l7.7,7.7
	C220.6,93.5,215.1,95,211.2,99L211.2,99z M226.1,125.3l7.5-4.5c3.8-3.9,5.2-9.3,4.1-14.2l2.4,2.4c-0.2,6.5,0.5,13.4,2,20.5
	C236.5,129.1,231,127.7,226.1,125.3L226.1,125.3z M244,88.5l-4-4.1c3.2-1.2,6.1-2.6,8.5-4.5c-0.9,1.3-1.8,2.6-2.5,4.1
	C245.2,85.4,244.6,86.9,244,88.5L244,88.5z M248.1,117l10.2,10.2c-2.7,1-5.5,1.6-8.4,2C249,125.1,248.4,121,248.1,117L248.1,117z
	 M295.6,177.4c-4.8,1.5-10.2,0.7-15.8-2.2c-11.7-6.1-22.3-20.9-27.9-38.6c9.2-1.8,17.7-6.3,24.5-13.1l23.8-23.7
	c3.3,5.6,6.2,11.9,8.3,18.7C316.8,145.6,310.9,172.6,295.6,177.4L295.6,177.4z M295.6,177.4"/>
</svg>
