<?xml version="1.0" encoding="utf-8"?>
<!-- Generator: Adobe Illustrator 23.0.1, SVG Export Plug-In . SVG Version: 6.00 Build 0)  -->
<svg version="1.1" id="Layer_1" xmlns="http://www.w3.org/2000/svg" xmlns:xlink="http://www.w3.org/1999/xlink" x="0px" y="0px"
	 viewBox="0 0 730.9 277.9" style="enable-background:new 0 0 730.9 277.9;" xml:space="preserve">
<style type="text/css">
	.st0{fill:#FFFFFF;}
</style>
<g>
	<path class="st0" d="M127.7,168.9h-19.4v-10.8H108c-4,6.3-13.2,13.7-28.1,13.7c-22.4,0-45-18.4-45-46.8c0-29.7,23.9-47.2,45-47.2
		c12.9,0,20.4,4.3,26.7,10.8V51.5h21.1V168.9z M82.2,152.5c15.9,0,26-14.3,26-27.6c0-14.5-11.1-27.6-26-27.6
		c-15.7,0-26.1,14.6-26.1,27C56.1,140.6,68.4,152.5,82.2,152.5"/>
	<path class="st0" d="M227.7,168.9h-19.4v-11c-6.6,7.9-19.6,13.8-30.8,13.8c-22.7,0-42.8-18.1-42.8-47.5c0-27,19.6-46.5,44.2-46.5
		c17.9,0,28.5,12.9,29.2,14.1h0.3V80.8h19.4L227.7,168.9L227.7,168.9z M182,97.2c-17.3,0-26.2,15-26.2,28.1
		c0,15,11.1,27.2,26.2,27.2c14.6,0,25.7-11.4,25.7-27.8C207.7,106.4,194.5,97.2,182,97.2"/>
	<path class="st0" d="M509,168.9h-19.4v-11c-6.7,7.9-19.7,13.8-30.8,13.8c-22.7,0-42.8-18.1-42.8-47.5c0-27,19.6-46.5,44.2-46.5
		c17.9,0,28.5,12.9,29.2,14.1h0.3V80.8H509L509,168.9z M463.3,97.2c-17.3,0-26.2,15-26.2,28.1c0,15,11.1,27.2,26.2,27.2
		c14.6,0,25.7-11.4,25.7-27.8C489,106.4,475.8,97.2,463.3,97.2"/>
	<path class="st0" d="M323.4,39.6c-45.5,0-82.4,36.9-82.4,82.4c0,0,0,0.1,0,0.1c0,45.6,82.5,125.9,82.5,125.9s82.5-80.3,82.4-125.9
		c0.1-45.5-36.8-82.4-82.3-82.5C323.6,39.6,323.5,39.6,323.4,39.6z M324.1,179.3c-33.1,0-60-26.9-60-60s26.9-60,60-60s60,26.9,60,60
		C384.1,152.5,357.3,179.3,324.1,179.3L324.1,179.3z"/>
	<path class="st0" d="M317.4,65.3H331l39.4,94h-19.2L341.1,135h-33.6l-10,24.3h-19.2L317.4,65.3z M313.3,118.6h21.6l-10.7-28.8H324
		L313.3,118.6z"/>
	<path class="st0" d="M604.6,39.6c-45.5,0-82.4,36.9-82.4,82.4c0,0,0,0.1,0,0.1c0,45.6,82.5,125.9,82.5,125.9s82.4-80.3,82.4-125.9
		C687.1,76.5,650.2,39.6,604.6,39.6C604.6,39.6,604.6,39.6,604.6,39.6z M605.2,179.3c-33.1,0-60-26.9-60-60s26.9-60,60-60
		s60,26.9,60,60S638.4,179.3,605.2,179.3L605.2,179.3z"/>
	<path class="st0" d="M577.6,72.3h18.5c10.4,0,20.8,0,29,7.2c4.9,4.5,7.8,10.9,8,17.6c0,11.8-7.6,16.3-10.5,17.9
		c6.2,2.3,16.1,7.5,16.1,23.4c0.1,8.9-4.2,17.3-11.7,22.3c-7.1,4.9-18.1,5.6-24.3,5.6h-25.2V72.3z M595,108.9h5.7c4,0,15,0,15-10.1
		c0-5.6-3.5-10.2-13.4-10.2H595L595,108.9L595,108.9z M595,150h8.7c3.4,0,17.6,0,17.6-12.3c0-3.8-2-12.6-17.2-12.6H595L595,150
		L595,150z"/>
</g>
</svg>
