<?xml version="1.0" encoding="utf-8"?>
<!-- Generator: Adobe Illustrator 23.0.1, SVG Export Plug-In . SVG Version: 6.00 Build 0)  -->
<svg version="1.1" id="Layer_1" xmlns="http://www.w3.org/2000/svg" xmlns:xlink="http://www.w3.org/1999/xlink" x="0px" y="0px"
	 viewBox="0 0 3358.2 1322.2" style="enable-background:new 0 0 3358.2 1322.2;" xml:space="preserve">
<style type="text/css">
	.st0{fill:#FFFFFF;}
</style>
<g id="XMLID_9_">
	<path id="XMLID_11_" class="st0" d="M1856.2,622.9c-37,19.1-74.6,58.5-153.7,61c-0.7-97.7,0.5-212.9,0.5-212.9
		c0-4.8,0.8-10.5,4.8-11.3c13.7-1.6,61.1-1.6,82.8-1.6c4.8,0,9.3,0,13.6,0c12.2,33.3,22.4,62.5,28.5,83.2c4.4,14.7-0.8,31.4-37,36.2
		c-7.2,0.8-15.3,4-15.3,7.2c0,3.2,3.7,3.9,11.8,3.9c16.9,0,46.1-3.2,67.8-3.2c43.5,0,52.4,2.4,65.2,2.4c7.2,0,15.6,0.2,15.6-3.9
		c0-2.4-4.8-5.6-13.7-7.2c-20.9-4.8-32.9-12.1-53.8-62c-8.3-19.4-16.2-37.7-23.7-55.4c15.4,1.1,21.4,3.2,25.5,6.8
		c6.4,6.4,12.1,21.7,13.7,36.2c0.8,4.8,2.4,12.1,5.6,12.1c3.2,0,6.4-6.4,6.4-18.5c0-29,0-48.3,2.4-58c0.8-5.6,0.8-7.2,0-9.7
		c-0.8-1.6-3.2-1.6-6.4,0.8c-13.7,7.3-29,8.9-50.7,8.9l-5.5,0c-37.2-87.9-68.5-165.5-117-295.4c-11.3-28.2-14.6-43.6-17.9-64.6
		c-1.6-4.8-3.2-6.4-5.6-6.4c-3.2,0-4,4.8-4.8,8.1c-3.2,20.1-13,30-17.9,35.6c-0.8,0.8-2.4,5.6-2.4,8.9c0,7.2-0.8,12.9-4.8,23.4
		c-36.9,91.8-86.2,213.9-118.2,289.8c-15.3-0.3-26-0.7-30.4-0.9c-10.5-0.8-23.4-4-26.6-8.1c-1.6-2.4-4.8-4-6.4-3.2
		c-3.2,1.6-3.2,4.8-3.2,12.1c0,20.1-7.3,44.3-11.3,67.7c-0.8,4.8-0.8,12.1,2.4,12.1c2.4,0,7.2-4.8,10.5-12.9
		c11.3-31.4,20.9-41.1,35.4-43.5c6.1-0.8,13-1.5,20.7-2.1c-7.1,16.7-13,30-17.1,38.6c-31.4,68.5-36.2,74.1-73.3,81.4
		c-8.1,1.6-17.9,3.7-16.1,7.3c0.5,1.1,2.8,2.5,3.9,2.9c12.4,3.9,18.2-0.4,47.7,20.4c44.7,31.6,115.2,87.4,187.6,94.4
		c-0.3,30.2-1.1,38.3-2.5,56.8c-2.4,37.1-2.6,50.7-40.4,55.6c-8.9,1.6-16.9,4-16.9,7.2c0,4,4,7.3,14.5,7.3c12.9,0,18.3-4.8,53.8-4.8
		c29,0,34.3,4.8,53.6,4.8c10.5,0,16.1-0.8,16.1-5.6c0-4-4-5.6-13.7-8.1c-26.6-8.1-33.6-12.8-35.3-42.7c-1.2-21-1.9-34.3-2.3-70.1
		c81.5-4.4,128-52.2,173.4-79.3c31.1-18.5,53.9,4.1,64.3-6.6C1945.9,612.1,1921.4,589.2,1856.2,622.9z M1680.6,161.9
		c2.4-5.6,4-8.1,6.4-2.4c0,0,64.9,158,109.9,278.7l-102.2,0.5c-45.8,0-89.7-0.5-122.1-1.1C1608.8,337.6,1652.7,229.8,1680.6,161.9z
		 M1552.7,622.3c-17-16.1-27.7-37.5-21.4-60l2.4-8.3c8.9-29.7,19.9-62.6,32-96.9c10.6-0.4,22.6-0.6,36.2-0.6
		c37.1,0,60.3,1.6,65.1,2.4c2.4,0.8,4.8,3.2,5.6,10.5c1.1,8.5,3.8,121.2,3.3,213.7C1619.3,676.7,1571.5,640.1,1552.7,622.3z"/>
	<path id="XMLID_1_" class="st0" d="M1703.4,406.4c2-62.8,0.2-63,19.7-69.4c9.7-2.4,13.7-4,13.7-8.1c0-4.8-1-5.6-11.4-5.6
		c-19.3,0-27.2,1.9-39,2.2c-6.2,0.1-22.7-2.2-35.6-2.2c-10.5,0-9.8,3.2-9.8,7.3c0,3.2,8.1,5.6,16.9,7.2
		c15.5,2.7,14.5,18.1,15.7,71.5c0.1,6,5.9,10.3,11.7,8.8l11.3-3C1700.4,414,1703.2,410.5,1703.4,406.4z"/>
</g>
<g id="XMLID_7_">
	<path id="XMLID_8_" class="st0" d="M99.9,1192c-2.3,7.9-2.3,11.8,0,14.1c1.9,1.9,4.6,2.7,8.7,3.5c2.1,0.6,3.1,1.5,3.1,2.1
		c0,1-1.9,1.5-4.1,1.5c-3.9,0-12.4-1-19.9-1c-5.2,0-9.1,1-14.1,1c-2.3,0-3.5-0.4-3.5-1.5c0-1,2.1-1.5,4.1-1.9
		c9.5-1.9,11.4-3.7,19.3-21.1c6-12.9,24.3-58.2,36.3-89.1c1-2.7,1.2-4.1,1.2-5.8c0-0.8,0.2-2.1,0.6-2.3c2.3-1.7,6.6-6,7.5-10.8
		c0.4-0.8,0.6-2.1,1.5-2.1s1.2,0.8,1.7,2.1c0.6,4.6,2.7,10.4,5.4,17.4c14.5,38.6,25.7,66.7,38.6,96c5.2,12.2,7.3,14.1,12.4,15.3
		c2.5,0.4,3.5,1.2,3.5,1.9c0,1-1.9,1.5-3.7,1.5c-3.9,0-7.3-0.6-18-0.6c-7.7,0-15.5,0.8-20.5,0.8c-2.3,0-3.5-0.4-3.5-1.4
		c0-0.8,1.9-1.7,3.9-1.9c8.3-1.2,9.5-4.8,9.3-9.3l-36.1-95.1c-0.6-1.7-1-1-1.7,0.4L99.9,1192z"/>
	<path id="XMLID_15_" class="st0" d="M569.7,1206.5c8.1,2.5,9.1,4.6,16.8,4.6c9.3,0,16.8-1.7,22.8-5c12.6-6.8,30.1-22.6,30.1-56.8
		c0-19.1-6-37.1-19.1-49.1c-11.4-10.6-23.8-17-42.7-17c-5.4,0-5.7,0.1-13.5,2.1c-18.7,4.7-28.6-0.4-28.6-0.4
		c-1.9-0.2-2.9-0.8-2.9-1.7s1.2-1.2,3.5-1.2c8.7,0,17.8,0,26.3-0.8c5.6-0.6,13.9-1.5,18.2-1.5c16.6,0,31.5,2.5,45.8,11.2
		c16.6,10.4,30.9,28,30.9,55.1c0,41.5-28.4,60.3-54.5,66.7c-5.4,1.2-13.5,1.7-19.1,1.7c-4.6,0-9.7-0.4-15.5-0.8
		c-6.2-0.4-12-1-18.2-1c-5.6,0-12,0.4-14.3,0.4c-2.3,0-3.9-0.6-3.9-1.7c0-0.6,1.1-1,3.5-1.5C543.8,1208.3,559.2,1203.3,569.7,1206.5
		z"/>
	<path id="XMLID_18_" class="st0" d="M831.5,1088.4c8.9,6.4,12.9,15.3,12.9,24.9c0,13.5-7,19.7-11.8,23.2c-3.1,2.9-8.7,5.2-11.8,6.4
		c-0.8,0.4-0.6,1.7,0.2,3.7c3.9,7.9,15.8,27.2,22.4,36.9c6.4,9.1,10.8,14.5,15.1,18.9c6.2,6.4,11.6,7.9,15.5,8.1
		c1.5,0,2.7,0.6,2.7,1.2c0,0.4-0.8,1.2-2.3,1.7c-1.9,0.8-5.6,1-9.5,1c-12.9,0-22-5.8-30.3-16.6c-9.1-12-24.3-37.3-28.4-43.7
		c-2.7-3.5-4.8-5.4-7.5-5.8c-1.9-0.4-4.4-0.8-8.7-0.6c-0.8,0.2-1.7,1-1.9,2.1c-0.4,2.5-0.4,26.5-0.2,34.4c0,11,0.8,17.8,1.7,19.7
		c0.6,2.5,2.3,4.8,9.5,6c2.3,0.4,3.1,1,3.1,1.9s-1.7,1.5-3.9,1.5c-3.7,0-9.9-1-17.6-1c-7.5,0-14.9,1-18.9,1c-2.1,0-3.5-0.4-3.5-1.5
		c0-0.8,1.2-1.5,3.9-1.9c6.8-1.4,8.9-3.3,9.5-11.8c0.6-11.8,1-28.4,1-54.3c0-28.8-0.8-41.9-1.2-48.9c-0.4-5.8-0.6-8.9-9.3-10.4
		c-1.9-0.4-3.5-0.8-3.5-1.9c0-0.8,1.2-1.2,3.7-1.2c2.9,0,8.9,0.6,16.2,0.6c8.7,0,14.3-1,25.1-1
		C816.1,1080.9,824.6,1083.4,831.5,1088.4z M789.4,1085.9c-0.4,0.2-1,0.4-1.2,3.9c-0.2,3.9-0.4,47.3-0.4,50.8c0,2.7,0.8,3.5,1.7,3.5
		c1,0.4,3.5,0.4,5,0.4c5.4-0.2,17.4-1.7,22-4.6c5.8-4.1,11.6-12.2,11.6-23.4c0-10.6-2.9-18.4-8.3-23.8c-6-5.8-13.3-8.3-23.6-8.3
		C793.3,1084.4,790.4,1085,789.4,1085.9z"/>
	<path id="XMLID_21_" class="st0" d="M998.1,1197.2c0,2.3,1.7,7.7,5.4,9.3c3.3,1.5,6.6,2.1,20.5,2.1c17.4,0,21.1-0.4,25.3-4.1
		c2.1-2.1,5.4-7,7.5-10c2.1-2.7,2.9-3.5,3.7-3.5c0.8,0,1,1.5,0.2,3.7c-1.2,4.8-3.5,13.5-4.6,15.8c-0.8,1.5-1.9,2.5-3.3,2.5
		c-22,0-45.4-0.8-62.2-0.8c-7,0-18.7,1-20.9,1c-2.7,0-3.9-0.6-3.9-1.5s1.5-1.2,3.7-1.9c7-1,11.2-3.7,11.4-13.1c1-33,1-55.8,1-96.4
		c0-11.8-2.5-14.3-9.9-16c-2.1-0.4-3.1-1-3.1-1.9c0-0.6,1.5-1.2,3.1-1.2c5,0,11.4,0.8,17.4,0.8c11,0,39.2-0.4,47.5-0.4
		c7.7,0,10.6-0.4,12.6-0.4c0.8,0,1.7,1.2,2.1,3.3c0.2,2.3,0.6,9.9,1.5,14.1c0.2,1.2,0,3.1-0.8,3.1c-0.6,0-1.2-0.6-2.3-2.9
		c-3.5-8.7-7.5-11.8-11.2-12.6c-4.8-0.8-32.1-0.8-38.8-0.6c-1.7,0.2-2.5,0.6-2.5,8.1"/>
	<path id="XMLID_23_" class="st0" d="M1215.6,1105.1c-0.6-1.7-1-1-1.7,0.4l-21.1,56.4c-1.9,4.6-7.9,19.9-10.8,30.1
		c-2.3,7.9-2.3,11.8,0,14.1c1.9,1.9,4.6,2.7,8.7,3.5c2.1,0.6,3.1,1.5,3.1,2.1c0,1-1.9,1.5-4.1,1.5c-3.9,0-12.4-1-19.9-1
		c-5.2,0-9.1,1-14.1,1c-2.3,0-3.5-0.4-3.5-1.5c0-1,2.1-1.5,4.1-1.9c9.5-1.9,11.4-3.7,19.3-21.1c6-12.9,24.3-58.2,36.3-89.1
		c1-2.7,1.2-4.1,1.2-5.8c0-0.8,0.2-2.1,0.6-2.3c2.3-1.7,6.6-6,7.5-10.8c0.4-0.8,0.6-2.1,1.5-2.1s1.2,0.8,1.7,2.1
		c0.6,4.6,2.7,10.4,5.4,17.4c14.5,38.6,25.7,66.7,38.6,96c5.2,12.2,7.3,14.1,12.4,15.3c2.5,0.4,3.5,1.2,3.5,1.9c0,1-1.9,1.5-3.7,1.5
		c-3.9,0-7.3-0.6-18-0.6c-7.7,0-15.5,0.8-20.5,0.8c-2.3,0-3.5-0.4-3.5-1.4c0-0.8,1.9-1.7,3.9-1.9c8.3-1.2,9.5-4.8,9.3-9.3
		L1215.6,1105.1z"/>
	<path id="XMLID_26_" class="st0" d="M1447.6,1081.9c9.7,0,13.5-0.4,17-2.3c0.8-0.6,1.5-0.8,1.7-0.4c0.2,0.6,0.4,1,0.2,2.7
		c-0.8,2.5-0.8,8.7-0.6,15.8c0,3.1-1,4.6-1.7,4.6c-0.8,0-1.5-1.9-1.7-2.9c-0.4-3.7-2.1-8.1-3.7-9.7c-1.9-1.7-4.6-2.5-19.1-2.5
		c-6.4,0-16.8,0-20.1,0.4c-1,0.2-1.2,1.9-1.2,3.3c0,7.7-0.4,56-0.4,64.7c-0.2,11.6,0.6,37.3,1.2,43.7c0.8,7,2.9,8.5,9.9,10.6
		c2.5,0.6,3.5,1,3.5,2.1c0,1.2-1.5,1.4-4.1,1.4c-4.8,0-11.2-1.2-19.5-1.2c-10.6,0-16.8,1.2-20.1,1.2c-2.7,0-3.7-0.8-3.7-1.9
		c0-0.8,1.9-1.5,4.1-1.9c9.9-1.5,11.2-4.8,11.8-14.3c1.5-20.1,1.5-102.6,1-105.5c-0.2-1.9-0.8-2.5-1.5-2.5c-1.2-0.2-6-0.6-15.5-0.6
		c-8.5,0-13.5,0.4-17.6,0.8c-3.9,0.8-6.6,3.3-9.5,11.4c-1,2.5-2.1,3.5-2.9,3.5c-0.8,0-0.8-1.7-0.6-3.1c1-6.2,2.7-12.4,2.7-17.8
		c0.2-1.7,0.2-2.7,1.2-3.1c0.4-0.2,1,0.2,1.7,0.8c0.8,1,3.7,1.9,6.6,2.1c3.3,0.2,23.8,0.8,45.2,0.8L1447.6,1081.9z"/>
	<path id="XMLID_28_" class="st0" d="M1692.2,1148.7c0,33.4-22.8,53.9-38.8,60.9c-8.3,3.7-17.8,6.2-27.4,6.2
		c-37.5,0-68.2-32.1-68.2-70.1c0-20.7,7-39.2,26.9-54.3c10.6-8.3,26.7-13.1,40.2-13.1C1661.1,1078.4,1692.2,1109.9,1692.2,1148.7z
		 M1590.4,1097.1c-10.4,12.4-14.7,31.1-14.7,47.9c0,16,6.2,33.8,16,46c12.2,16.2,26.3,20.9,37.9,20.9c7.5,0,15.3-2.3,22.2-8.3
		c9.7-7.7,22.6-25.7,22.6-54.9c0-18-6-35.9-17.6-50.2c-7.5-8.9-18.7-17-35.2-17C1609.7,1081.5,1596.8,1089.6,1590.4,1097.1z"/>
	<path id="XMLID_31_" class="st0" d="M1823.8,1198.6c0.2,7.9,1.5,9.1,11,11.4c1.7,0.4,2.9,1,2.9,1.9c0,1.2-2.3,1.4-4.4,1.4
		c-2.9,0-11.8-1.2-20.3-1.2c-7.9,0-13.1,0.8-16,0.8c-1.9,0-3.3-0.4-3.3-1.4c0-0.8,1-1.5,3.7-2.1c7.9-1.7,8.9-3.3,9.3-11
		c0.6-6.8,0.6-32.5,0.6-55.3c0-22,0-34.6-0.6-47.3c-0.4-7.5-1-9.3-8.5-11.2c-1.9-0.4-3.3-1-3.3-2.1c0-0.8,1.2-1.2,3.1-1.2
		c2.5,0,13.9,0.8,23,0.8c21.8,0,43.7-0.6,51.6-0.6c4.4,0,5.8,1,5.8,2.5c0.4,2.9,1,12,1.5,14.5c0.4,2.1,0,3.9-1,3.9
		c-0.8,0-1.4-1.5-2.5-4.1c-3.5-8.1-8.1-11.2-15.5-11.8c-6.6-0.6-15.5-0.6-34.4-0.6c-1.5,0-2.9,2.7-2.9,3.7 M1856.4,1144.9
		c1.7-2.4,9-1,12.2-8.1c1-2.1,1.7-2.9,2.3-2.9c0.8,0,1.2,1,1,3.1c-0.2,2.3-1,8.5-1,12.9s0.6,7.3,0.8,9.9c0,2.7-0.4,3.5-1.5,3.5
		c-0.8,0-1.7-1.7-2.9-4.6c-1.7-4.6-7.6-8.7-9.5-10.5C1856.7,1147.1,1855.5,1146.3,1856.4,1144.9z"/>
	<path id="XMLID_33_" class="st0" d="M2005.2,1198.6c0.2,7.9,1.5,9.1,11,11.4c1.7,0.4,2.9,1,2.9,1.9c0,1.2-2.3,1.4-4.4,1.4
		c-2.9,0-11.8-1.2-20.3-1.2c-7.9,0-13.1,0.8-16,0.8c-1.9,0-3.3-0.4-3.3-1.4c0-0.8,1-1.5,3.7-2.1c7.9-1.7,8.9-3.3,9.3-11
		c0.6-6.8,0.6-32.5,0.6-55.3c0-22,0-34.6-0.6-47.3c-0.4-7.5-1-9.3-8.5-11.2c-1.9-0.4-3.3-1-3.3-2.1c0-0.8,1.2-1.2,3.1-1.2
		c2.5,0,13.9,0.8,23,0.8c21.8,0,43.7-0.6,51.6-0.6c4.4,0,5.8,1,5.8,2.5c0.4,2.9,1,12,1.4,14.5c0.4,2.1,0,3.9-1,3.9
		c-0.8,0-1.5-1.5-2.5-4.1c-3.5-8.1-8.1-11.2-15.5-11.8c-6.6-0.6-15.5-0.6-34.4-0.6c-1.4,0-2.9,2.7-2.9,3.7 M2037.8,1144.9
		c1.7-2.4,9-1,12.2-8.1c1-2.1,1.7-2.9,2.3-2.9c0.8,0,1.2,1,1,3.1c-0.2,2.3-1,8.5-1,12.9s0.6,7.3,0.8,9.9c0,2.7-0.4,3.5-1.5,3.5
		c-0.8,0-1.7-1.7-2.9-4.6c-1.7-4.6-7.6-8.7-9.5-10.5C2038.1,1147.1,2036.8,1146.3,2037.8,1144.9z"/>
	<path id="XMLID_35_" class="st0" d="M2198.4,1105.1c-0.6-1.7-1-1-1.7,0.4l-21.1,56.4c-1.9,4.6-7.9,19.9-10.8,30.1
		c-2.3,7.9-2.3,11.8,0,14.1c1.9,1.9,4.6,2.7,8.7,3.5c2.1,0.6,3.1,1.5,3.1,2.1c0,1-1.9,1.5-4.1,1.5c-3.9,0-12.4-1-19.9-1
		c-5.2,0-9.1,1-14.1,1c-2.3,0-3.5-0.4-3.5-1.5c0-1,2.1-1.5,4.1-1.9c9.5-1.9,11.4-3.7,19.3-21.1c6-12.9,24.3-58.2,36.3-89.1
		c1-2.7,1.2-4.1,1.2-5.8c0-0.8,0.2-2.1,0.6-2.3c2.3-1.7,6.6-6,7.5-10.8c0.4-0.8,0.6-2.1,1.4-2.1c0.8,0,1.2,0.8,1.7,2.1
		c0.6,4.6,2.7,10.4,5.4,17.4c14.5,38.6,25.7,66.7,38.6,96c5.2,12.2,7.3,14.1,12.4,15.3c2.5,0.4,3.5,1.2,3.5,1.9c0,1-1.9,1.5-3.7,1.5
		c-3.9,0-7.3-0.6-18-0.6c-7.7,0-15.5,0.8-20.5,0.8c-2.3,0-3.5-0.4-3.5-1.4c0-0.8,1.9-1.7,3.9-1.9c8.3-1.2,9.5-4.8,9.3-9.3
		L2198.4,1105.1z"/>
	<path id="XMLID_38_" class="st0" d="M2378.5,1107.1c1.6,0.2,2.8,1.6,2.8,3.2c-0.1,14.1-0.6,66.5-0.6,75.3
		c0.2,9.3,0.6,13.9,2.3,17.4c1.7,3.5,6.8,5.6,10.4,6.4c2.1,0.6,3.5,1.2,3.5,2.5c0,1-2.1,1.2-3.9,1.2c-3.7,0-9.3-1-15.8-1
		c-6.2,0-12.9,1-14.5,1c-3.1,0-3.5-0.6-3.5-1.2c0-1,1.7-1.5,3.9-2.1c7.5-2.3,9.9-3.9,11-16c0.8-7.2,2.1-74.9,2.3-85.7
		c0-0.8,0.7-1.4,1.5-1.2L2378.5,1107.1z M2483.1,1134.2c1-0.3,2,0.5,2,1.5c-0.1,12.1-0.2,24.2-0.2,32.3c0,18.9-0.4,31.1,0,42.1
		c0.2,4.4-0.2,6.6-1.7,6.6c-0.8,0-3.5-3.1-7-7.7c0,0-77.8-90.8-103.6-120.6c-2.2-2.6-5.4-3.1-10-3.9c-2.9-0.4-3.9-0.8-3.9-1.9
		c0-0.8,1-1.5,4.4-1.5c6.2,0,17.4,1,24.9,1c1,0,1.9,0.6,4.8,4.4c13.7,17.4,67.2,77.5,86,98.3c0.4,0.6,1.2,0.6,1.2-1.2
		c0-4.5-0.2-26.3-0.5-47c0-0.7,0.4-1.3,1.1-1.5L2483.1,1134.2z M2480.8,1122.3c-0.8,0.2-1.6-0.4-1.6-1.3c-0.1-8.4-0.2-15.7-0.4-20.4
		c0-12.2-4.6-14.3-11.2-16c-2.5-0.6-3.9-1-3.9-1.9c0-1,1.9-1.5,4.1-1.5c3.7,0,9.7,0.8,14.3,0.8c6,0,11.2-0.8,13.5-0.8
		c2.3,0,3.3,0.4,3.3,1.2c0,1-1.7,1.5-3.5,2.1c-8.1,2.7-8.5,7-9.3,12.4c-0.3,3.2-0.6,12.2-0.8,23.2c0,0.6-0.4,1.1-1,1.3
		L2480.8,1122.3z"/>
	<path id="XMLID_42_" class="st0" d="M2788.6,1081.1c6.4,0,13.1,1,18.7,1c6.4,0,12.2-0.8,17-0.8c2.5,0,3.3,0.4,3.3,1
		c0,1-1.2,1.7-2.9,2.1c-8.5,1.7-8.9,2.9-9.5,17.2c-0.2,3.5-0.4,22.6-0.4,41.5c0,19.7,0.2,40.4,0.4,44.4c0.6,8.3,1,14.1,2.9,16.4
		c2.3,3.1,7.9,5.2,24.7,5.2c9.3,0,14.7-0.2,18.2-1c4.6-0.8,9.1-6,13.3-13.5c1.4-2.5,2.5-3.3,3.3-3.3c0.8,0,0.6,3.1-0.4,5.8
		c-0.6,1.7-4.6,13.1-5.4,14.5c-1,1.7-2.9,2.1-4.4,2.1c-2.1,0-17.8,0.2-28-0.4c-10.4-0.4-25.3-1-32.5-1c-6.4,0-15.8,1-18.7,1
		c-2.5,0-4.4-0.2-4.4-1.5c0-0.8,1.9-1.5,3.7-1.7c8.9-1.7,10.2-4.6,10.8-11c0.8-8.3,0.8-22,0.8-50.6c0-28.2-0.2-42.5-0.6-49.5
		c-0.6-11.8-1.2-13.1-10.2-14.7c-2.5-0.4-3.1-1-3.1-1.9C2785.3,1081.7,2786.5,1081.1,2788.6,1081.1z"/>
	<path id="XMLID_44_" class="st0" d="M2974.7,1081.1c6.4,0,13.1,1,18.7,1c6.4,0,12.2-0.8,17-0.8c2.5,0,3.3,0.4,3.3,1
		c0,1-1.2,1.7-2.9,2.1c-8.5,1.7-8.9,2.9-9.5,17.2c-0.2,3.5-0.4,22.6-0.4,41.5c0,19.7,0.2,40.4,0.4,44.4c0.6,8.3,1,14.1,2.9,16.4
		c2.3,3.1,7.9,5.2,24.7,5.2c9.3,0,14.7-0.2,18.2-1c4.6-0.8,9.1-6,13.3-13.5c1.5-2.5,2.5-3.3,3.3-3.3c0.8,0,0.6,3.1-0.4,5.8
		c-0.6,1.7-4.6,13.1-5.4,14.5c-1,1.7-2.9,2.1-4.4,2.1c-2.1,0-17.8,0.2-28-0.4c-10.4-0.4-25.3-1-32.5-1c-6.4,0-15.8,1-18.7,1
		c-2.5,0-4.4-0.2-4.4-1.5c0-0.8,1.9-1.5,3.7-1.7c8.9-1.7,10.2-4.6,10.8-11c0.8-8.3,0.8-22,0.8-50.6c0-28.2-0.2-42.5-0.6-49.5
		c-0.6-11.8-1.2-13.1-10.2-14.7c-2.5-0.4-3.1-1-3.1-1.9C2971.4,1081.7,2972.7,1081.1,2974.7,1081.1z"/>
	<path id="XMLID_46_" class="st0" d="M3289,1148.7c0,33.4-22.8,53.9-38.8,60.9c-8.3,3.7-17.8,6.2-27.4,6.2
		c-37.5,0-68.2-32.1-68.2-70.1c0-20.7,7-39.2,26.9-54.3c10.6-8.3,26.7-13.1,40.2-13.1C3257.9,1078.4,3289,1109.9,3289,1148.7z
		 M3187.2,1097.1c-10.4,12.4-14.7,31.1-14.7,47.9c0,16,6.2,33.8,16,46c12.2,16.2,26.3,20.9,37.9,20.9c7.5,0,15.3-2.3,22.2-8.3
		c9.7-7.7,22.6-25.7,22.6-54.9c0-18-6-35.9-17.6-50.2c-7.5-8.9-18.7-17-35.2-17C3206.5,1081.5,3193.6,1089.6,3187.2,1097.1z"/>
	<path id="XMLID_34_" class="st0" d="M313.6,1107.1c1.6,0.2,2.8,1.6,2.8,3.2c-0.1,14.1-0.6,66.5-0.6,75.3c0.2,9.3,0.6,13.9,2.3,17.4
		c1.7,3.5,6.8,5.6,10.4,6.4c2.1,0.6,3.5,1.2,3.5,2.5c0,1-2.1,1.2-3.9,1.2c-3.7,0-9.3-1-15.8-1c-6.2,0-12.9,1-14.5,1
		c-3.1,0-3.5-0.6-3.5-1.2c0-1,1.7-1.5,3.9-2.1c7.5-2.3,9.9-3.9,11-16c0.8-7.2,2.1-74.9,2.3-85.7c0-0.8,0.7-1.4,1.5-1.2L313.6,1107.1
		z M418.2,1134.2c1-0.3,2,0.5,2,1.5c-0.1,12.1-0.2,24.2-0.2,32.3c0,18.9-0.4,31.1,0,42.1c0.2,4.4-0.2,6.6-1.7,6.6
		c-0.8,0-3.5-3.1-7-7.7c0,0-77.8-90.8-103.6-120.6c-2.2-2.6-5.4-3.1-10-3.9c-2.9-0.4-3.9-0.8-3.9-1.9c0-0.8,1-1.5,4.4-1.5
		c6.2,0,17.4,1,24.9,1c1,0,1.9,0.6,4.8,4.4c13.7,17.4,67.2,77.5,86,98.3c0.4,0.6,1.2,0.6,1.2-1.2c0-4.5-0.2-26.3-0.5-47
		c0-0.7,0.4-1.3,1.1-1.5L418.2,1134.2z M415.9,1122.3c-0.8,0.2-1.6-0.4-1.6-1.3c-0.1-8.4-0.2-15.7-0.4-20.4c0-12.2-4.6-14.3-11.2-16
		c-2.5-0.6-3.9-1-3.9-1.9c0-1,1.9-1.5,4.1-1.5c3.7,0,9.7,0.8,14.3,0.8c6,0,11.2-0.8,13.5-0.8c2.3,0,3.3,0.4,3.3,1.2
		c0,1-1.7,1.5-3.5,2.1c-8.1,2.7-8.5,7-9.3,12.4c-0.3,3.2-0.6,12.2-0.8,23.2c0,0.6-0.4,1.1-1,1.3L415.9,1122.3z"/>
	<path id="XMLID_13_" class="st0" d="M2626.9,1197.3c0,2.3,1.7,7.7,5.4,9.3c3.3,1.5,6.6,2.1,20.5,2.1c17.4,0,21.1-0.4,25.3-4.1
		c2.1-2.1,5.4-7,7.5-10c2.1-2.7,2.9-3.5,3.7-3.5c0.8,0,1,1.5,0.2,3.7c-1.2,4.8-3.5,13.5-4.6,15.8c-0.8,1.5-1.9,2.5-3.3,2.5
		c-22,0-45.4-0.8-62.2-0.8c-7,0-18.7,1-20.9,1c-2.7,0-3.9-0.6-3.9-1.5s1.5-1.2,3.7-1.9c7-1,11.2-3.7,11.4-13.1c1-33,1-55.8,1-96.4
		c0-11.8-2.5-14.3-9.9-16c-2.1-0.4-3.1-1-3.1-1.9c0-0.6,1.5-1.2,3.1-1.2c5,0,11.4,0.8,17.4,0.8c11,0,39.2-0.4,47.5-0.4
		c7.7,0,10.6-0.4,12.6-0.4c0.8,0,1.7,1.2,2.1,3.3c0.2,2.3,0.6,9.9,1.5,14.1c0.2,1.2,0,3.1-0.8,3.1c-0.6,0-1.2-0.6-2.3-2.9
		c-3.5-8.7-7.5-11.8-11.2-12.6c-4.8-0.8-32.1-0.8-38.8-0.6c-1.7,0.2-2.5,0.6-2.5,8.1"/>
</g>
</svg>
