<?xml version="1.0" encoding="utf-8"?>
<!-- Generator: Adobe Illustrator 23.0.1, SVG Export Plug-In . SVG Version: 6.00 Build 0)  -->
<svg version="1.1" id="Layer_1" xmlns="http://www.w3.org/2000/svg" xmlns:xlink="http://www.w3.org/1999/xlink" x="0px" y="0px"
	 viewBox="0 0 24 24" style="enable-background:new 0 0 24 24;" xml:space="preserve">
<style type="text/css">
	.st0{fill:#FFFFFF;}
</style>
<title>SoundCloud icon</title>
<path class="st0" d="M1.2,12.2c-0.1,0-0.1,0-0.1,0.1l-0.2,2.2l0.2,2.1c0,0.1,0,0.1,0.1,0.1c0,0,0.1,0,0.1-0.1l0.3-2.1l-0.3-2.2
	C1.3,12.3,1.2,12.2,1.2,12.2 M0.3,13.1c-0.1,0-0.1,0-0.1,0.1L0,14.5l0.2,1.3c0,0.1,0,0.1,0.1,0.1s0.1,0,0.1-0.1l0.2-1.3L0.3,13.1
	C0.4,13.1,0.3,13,0.3,13.1 M2.1,11.8c-0.1,0-0.1,0-0.1,0.1l-0.2,2.6L2,16.9C2,17,2,17,2.1,17c0.1,0,0.1-0.1,0.1-0.1l0.3-2.5
	l-0.3-2.5C2.2,11.8,2.2,11.8,2.1,11.8 M3.1,11.7c-0.1,0-0.1,0.1-0.2,0.1l-0.2,2.6L2.9,17c0,0.1,0.1,0.1,0.1,0.1
	c0.1,0,0.1-0.1,0.2-0.1l0.2-2.5l-0.2-2.6C3.2,11.8,3.2,11.7,3.1,11.7C3.1,11.7,3.1,11.7,3.1,11.7z M4.2,12.1c0-0.1-0.1-0.1-0.2-0.1
	c-0.1,0-0.2,0.1-0.2,0.1l-0.2,2.4l0.2,2.6c0,0.1,0.1,0.2,0.2,0.2c0.1,0,0.1-0.1,0.1-0.2l0.2-2.6L4.2,12.1C4.2,12,4.2,12.1,4.2,12.1z
	 M5,10.3c-0.1,0-0.2,0.1-0.2,0.2l-0.2,4l0.2,2.6c0,0.1,0.1,0.2,0.2,0.2c0.1,0,0.2-0.1,0.2-0.2l0.2-2.6l-0.2-4
	C5.2,10.4,5.1,10.3,5,10.3 M6,9.4c-0.1,0-0.2,0.1-0.2,0.2l-0.2,4.9L5.7,17c0,0.1,0.1,0.2,0.2,0.2c0.1,0,0.2-0.1,0.2-0.2l0.2-2.5
	L6.1,9.6C6.1,9.5,6,9.4,6,9.4 M6.9,9C6.8,9,6.7,9,6.7,9.2l-0.2,5.3L6.7,17c0,0.1,0.1,0.2,0.2,0.2c0.1,0,0.2-0.1,0.2-0.2l0.2-2.5
	L7.1,9.2C7.1,9,7,8.9,6.9,9 M8.2,9c0-0.1-0.1-0.2-0.2-0.2C7.8,8.7,7.7,8.9,7.7,9l-0.1,5.4l0.1,2.5c0,0.1,0.1,0.2,0.3,0.2
	c0.1,0,0.2-0.1,0.2-0.2l0.2-2.5L8.2,9C8.2,9,8.2,9,8.2,9z M8.9,8.9C8.8,8.9,8.7,9,8.7,9.1l-0.1,5.3l0.1,2.5c0,0.1,0.1,0.3,0.3,0.3
	s0.3-0.1,0.3-0.3l0.1-2.5L9.2,9.1C9.2,9,9,8.8,8.9,8.9 M9.9,9C9.7,9,9.6,9.1,9.6,9.3l-0.1,5.1l0.1,2.5c0,0.1,0.1,0.3,0.3,0.3
	c0.1,0,0.3-0.1,0.3-0.3l0.1-2.4l-0.1-5.1C10.2,9.2,10.1,9.1,9.9,9 M11.1,8.1c0,0-0.1,0-0.2,0s-0.1,0-0.2,0c-0.1,0.1-0.1,0.1-0.1,0.3
	v0.1l-0.1,6l0.1,2.4v0c0,0.1,0,0.1,0.1,0.2c0.1,0.1,0.1,0.1,0.2,0.1c0.1,0,0.2,0,0.2-0.1c0.1-0.1,0.1-0.1,0.1-0.2l0-0.2l0.1-2.2
	l-0.1-6.1C11.2,8.3,11.2,8.2,11.1,8.1C11.1,8.1,11.1,8.1,11.1,8.1z M12.1,7.6c0,0-0.1-0.1-0.1-0.1c-0.1,0-0.1,0-0.2,0.1
	c-0.1,0.1-0.1,0.2-0.1,0.2v0l-0.1,6.6l0.1,1.2l0.1,1.2c0,0.2,0.1,0.3,0.3,0.3c0.2,0,0.3-0.1,0.3-0.3l0.1-2.4l-0.1-6.6
	C12.3,7.7,12.2,7.6,12.1,7.6 M21,11.3c-0.4,0-0.8,0.1-1.1,0.2c-0.2-2.7-2.5-4.7-5.2-4.7c-0.7,0-1.3,0.1-1.9,0.4
	c-0.2,0.1-0.3,0.2-0.3,0.4v9.4c0,0.2,0.1,0.3,0.3,0.3h8.2c1.6,0,2.9-1.3,2.9-2.9S22.7,11.3,21,11.3"/>
</svg>
