<?xml version="1.0" standalone="no"?>
<!DOCTYPE svg PUBLIC "-//W3C//DTD SVG 20010904//EN"
 "http://www.w3.org/TR/2001/REC-SVG-20010904/DTD/svg10.dtd">
<svg version="1.0" xmlns="http://www.w3.org/2000/svg"
 width="708.000000pt" height="708.000000pt" viewBox="0 0 708.000000 708.000000"
 preserveAspectRatio="xMidYMid meet">
<metadata>
Created by potrace 1.11, written by Peter Selinger 2001-2013
</metadata>
<g transform="translate(0.000000,708.000000) scale(0.100000,-0.100000)"
fill="#000000" stroke="none">
<path d="M3621 6837 c-6 -8 -15 -36 -20 -63 -21 -109 -49 -165 -158 -313 -7
-9 -15 -41 -18 -71 -3 -30 -8 -72 -11 -94 -4 -33 -229 -612 -285 -733 -10 -24
-19 -45 -19 -47 0 -3 -41 -105 -91 -228 -49 -123 -142 -351 -205 -508 -64
-157 -122 -298 -129 -315 -7 -16 -65 -158 -129 -315 -64 -157 -121 -294 -126
-305 -5 -11 -20 -45 -33 -75 -45 -102 -89 -123 -251 -115 -154 7 -246 31 -301
79 -56 48 -77 27 -80 -82 -4 -114 -14 -182 -50 -352 -3 -14 -7 -34 -9 -45 -3
-11 -12 -54 -21 -95 -25 -117 -28 -172 -12 -194 30 -40 73 11 133 160 41 105
101 208 141 246 38 37 114 69 176 75 29 2 57 6 62 8 15 4 40 -16 48 -39 8 -20
-76 -219 -208 -491 -99 -204 -148 -287 -211 -354 -81 -88 -137 -113 -376 -165
-141 -32 -131 -76 22 -101 123 -20 181 -54 555 -320 505 -360 855 -544 1193
-626 78 -19 151 -32 180 -32 8 0 21 -11 29 -24 13 -19 14 -49 9 -185 -4 -90
-8 -183 -10 -208 -3 -25 -7 -89 -11 -143 -3 -53 -8 -107 -10 -120 -2 -12 -6
-40 -10 -62 -9 -64 -53 -143 -93 -170 -46 -30 -134 -61 -198 -69 -61 -8 -155
-34 -171 -48 -22 -18 -14 -48 17 -66 35 -22 117 -27 181 -13 24 5 71 13 104
16 33 4 69 9 80 11 35 7 328 6 380 -1 28 -4 84 -13 125 -20 91 -16 244 -17
276 -3 31 15 40 45 19 68 -9 9 -44 25 -78 35 -123 34 -213 74 -251 113 -77 77
-86 132 -101 622 -9 264 -12 255 95 265 36 4 84 11 108 16 23 5 59 12 79 15
63 10 203 53 308 95 184 74 337 165 725 431 187 127 253 164 329 182 56 13
162 14 218 2 106 -23 149 -27 178 -16 40 15 47 29 28 61 -39 66 -196 90 -363
54 -139 -29 -364 -126 -501 -213 -314 -203 -433 -269 -620 -345 -39 -16 -202
-65 -240 -72 -13 -3 -35 -7 -49 -10 -47 -9 -85 -15 -135 -20 -125 -13 -134
-13 -152 7 -17 19 -18 67 -16 872 3 948 5 1032 25 1052 19 19 113 25 474 28
370 4 382 1 421 -91 52 -124 221 -631 227 -682 6 -57 -13 -113 -52 -154 -38
-40 -119 -83 -174 -92 -17 -3 -34 -8 -37 -10 -4 -2 -27 -6 -51 -10 -56 -8 -76
-13 -117 -32 -39 -18 -44 -50 -10 -62 25 -10 177 -7 347 5 143 11 601 11 815
0 171 -9 215 -2 215 32 0 21 -42 42 -135 67 -162 43 -257 132 -360 335 -55
108 -265 604 -265 626 0 29 27 49 59 46 141 -16 197 -102 251 -383 14 -74 30
-95 58 -80 20 11 28 25 38 73 3 13 7 133 9 268 2 135 6 256 10 270 12 56 15
126 6 139 -8 12 -21 9 -80 -18 -38 -18 -82 -34 -97 -37 -15 -3 -30 -7 -34 -9
-8 -5 -143 -18 -210 -20 -110 -3 -134 20 -210 204 -34 80 -67 160 -75 176 -26
61 -200 487 -297 730 -103 258 -157 398 -259 665 -33 85 -62 162 -66 170 -3 8
-7 17 -8 20 -1 3 -5 12 -8 20 -3 8 -69 182 -146 385 -138 368 -186 506 -196
568 -3 17 -8 39 -11 48 -2 9 -11 53 -19 99 -18 103 -51 146 -84 107z m-55
-852 c25 -60 48 -119 53 -130 5 -11 13 -31 19 -45 5 -14 21 -52 35 -85 13 -33
37 -91 52 -130 15 -38 33 -83 40 -100 28 -65 259 -645 360 -905 59 -151 132
-338 162 -415 30 -77 75 -194 99 -260 25 -66 50 -130 56 -142 20 -40 14 -84
-16 -110 -31 -27 -7 -26 -1026 -23 -792 1 -794 2 -819 24 -12 11 -21 29 -21
40 0 20 278 774 329 891 5 11 107 268 227 570 120 303 223 561 230 575 6 14
42 101 80 193 46 114 72 167 82 165 7 -2 34 -52 58 -113z m-276 -2520 c120
-16 116 -3 125 -385 20 -776 22 -1534 5 -1555 -17 -21 -60 -19 -170 9 -124 32
-222 68 -345 125 -83 40 -263 143 -300 173 -5 5 -46 35 -90 67 -156 115 -269
240 -319 352 -54 124 -55 207 -1 389 50 171 240 742 260 780 30 58 43 59 435
55 195 -2 375 -6 400 -10z"/>
<path d="M3162 4643 c-23 -4 -40 -28 -36 -50 1 -7 2 -17 3 -21 2 -13 68 -39
134 -53 67 -14 100 -45 117 -110 15 -56 18 -94 25 -334 6 -195 8 -212 27 -232
12 -13 29 -25 39 -28 19 -6 129 18 166 37 37 18 34 0 47 343 10 265 20 284
173 331 88 27 121 54 108 92 -8 28 -30 31 -183 25 -179 -8 -350 -9 -487 -2
-60 3 -120 4 -133 2z"/>
</g>
</svg>
